<svg xmlns="http://www.w3.org/2000/svg" xml:space="preserve" viewBox="0 0 230 255"><path fill="#010001" d="M231 93c0 53.333-.042 106.167.097 159 .01 3.425-.673 4.102-4.097 4.096q-111-.189-222 0c-3.424.006-4.1-.672-4.096-4.096q.184-123.5 0-247C.899 1.576 1.576.898 5 .904q111 .189 222 0c3.424-.006 4.12.669 4.1 4.097-.175 29.165-.1 58.332-.1 87.999"/><path fill="#8152ef" d="M137.282 242.006c-14.464 14.979-32.27 13.442-46.266-3.738-5.9-7.244-10.9-15.065-14.758-23.962 1.039-3.753 3.737-4.914 7.308-5.334 2.55.702 3.315 2.601 4.183 4.393 2.827 5.838 6.573 11.083 10.691 16.497 2.67 3.41 4.822 6.898 9.544 7.744.796.121 1.237.25 1.984.564 3.535 3.2 7.166 3.214 11.3 1.402 1.048-.702 1.96-.918 3.011-1.618 2.093-1.23 3.93-2.206 6.183-3.13 3.985-.675 5.733-4.277 9.267-5.727 1.732-.847 3.164-1.408 5.084-.588 1.54 3.254-1.222 4.878-2.274 7.527-.125.37-.125.192-.115.285-2.671.904-4.656 2.367-5.142 5.685"/><path fill="#8352f1" d="M26.47 126.343c-.012-.338-.41-.612-.529-.822-.38-.976-1.23-1.285-1.634-2.296-4.9-6.073-8.104-12.78-11.206-19.947-.24-.49-.408-.619-.692-1.045-.117-.297-.305-.386-.416-.713-.35-1.118-.589-1.91-.873-3.116-.333-1.277-.669-2.119-1.258-3.223a23 23 0 0 1-.753-2.81c-.085-1.994-1.003-3.527-.296-5.464 2.485-1.045 3.649.353 4.246 2.087.778 2.256 2.398 2.794 4.8 2.963 1.316.456 2.018 1.134 2.8 2.268 3.247 9.455 7.852 17.756 13.955 25.64 1.807 3.21 3.474 6.088 6.632 8.197.63.498.956.822 1.474 1.441 4.379 8.098 11.766 13.13 17.42 20.105.821.86 1.22 1.663 2.265 2.298.417.356.57.517.866.982.156.53.165.755.062 1.303-1.424 2.023-3.25 2.94-5.55 3.708-.58.036-.813.024-1.388-.07-.776-.249-1.194-.451-1.874-.887-2.973-2.172-4.785-5.11-7.863-7.152-1.163-1.392-1.772-2.849-3.534-3.66-.63-.418-.97-.685-1.543-1.18-.852-.82-1.412-1.469-2.172-2.365-.785-1.109-1.336-2.001-2.6-2.645-.62-.429-.964-.694-1.55-1.188-3.618-3.792-7.803-6.778-8.79-12.409"/><path fill="#8150fa" d="M7.715 183.306c-.213-.777-.303-1.2-.308-1.942.975-3.049.399-5.916.87-8.683 2.293-13.485 6.67-26.09 15.959-36.925 4.487.024 6.468 2.592 7.436 6.627-.378 1.42-1.19 2.127-2.003 3.29-7.38 9.375-10.486 19.893-11.172 31.235-.232 3.836.944 7.482 2.046 11.51-.804 3.03-2.66 4.378-5.712 4.727-4.973-1.513-5.066-6.139-7.116-9.84"/><path fill="#e389f8" d="M204.589 126.76c.213.752.27 1.181.358 1.934 1.207 4.333 4.407 7.171 6.133 10.873.748 1.606 2.145 2.954 1.536 5.287-1.566 1.546-2.71 3.04-4.4 4.47-2.22.562-3.186-.63-3.543-2.145-.542-2.305-2.432-2.958-4.41-4.127a5 5 0 0 1-.96-.993c-.801-1.688-.918-3.406-2.937-4.28-3.243-2.555-5.21-5.572-6.432-9.52-.196-2.422-.981-4.138-2.553-5.522-1.482-1.305-2.924-2.673-4.124-4.24-1.769-2.313-1.378-4.707.323-6.799 1.944-2.391 4.03-1.153 6.144.017 2.657 1.47 3.704 4.62 6.796 6.079 3.672 2.253 6 5.263 8.069 8.966"/><path fill="#f799fb" d="M222.266 90.88c-.19.755-.221 1.138-.335 1.798-1.106 1.642-1.178 3.31-1.73 5.18-.184.297-.192.708-.239.909-.654 1.352-1.32 2.473-1.86 3.998a10 10 0 0 1-.138.988c-.268.63-.516 1.024-1.093 1.584-.752.37-1.219.444-2.06.345-2.292-.906-3.349-2.588-4.596-4.586-.873-2.656-.76-4.886.305-7.117 4.62-9.678 3.992-19.055-1.824-28.051-2.798-4.328-1.931-6.153 3.582-6.447.595.135.831.19 1.404.378 1.197.543 1.881 1.21 2.961 1.921.482.337.668.485 1.114.879.72.82 1.282 1.295 2.033 2.124 4.859 7.53 5.322 15.281 2.961 23.744-.219.913-.284 1.446-.485 2.354"/><path fill="#e7bded" d="M222.366 89.294c1.435-8.59 1.307-16.592-4.086-24.081-.703-.64-.764-1.217-1.075-1.985-.168-.228-.186-.245-.189-.258-.707-.766-1.636-1.162-2.767-1.797-.226-.2-.247-.177-.236-.19-13.046-7.028-26.802-10.507-41.7-8.36-1.97.284-3.982.224-6.374.027-1.992-.147-3.558.612-5.532-.06-1.007-.732-1.254-1.46-1.165-2.677.465-1.203 1.182-1.4 2.383-1.417.832-.04 1.279-.082 2.053-.046.493.045.659.012 1.064.061.691.035 1.142-.012 1.932-.014.34.045.817-.072 1.052-.142 12.43-2.577 24.41-.946 35.977 2.831 17.606 5.75 24.143 18.297 20.061 37.664-.516.442-.783.595-1.398.444"/><path fill="#d485f2" d="M87.174 22.644c3.073-5.546 7.449-9.561 12.587-13.23 4.756-.671 9.102-.39 13.606 1.547.92.781 1.09 1.472.8 2.596.551 1.43-3.118.855-.958 2.858-5.963 4.346-11.48 8.965-17.688 13.13-3.584-1.47-4.05-6.296-8.347-6.901"/><path fill="#ca7df1" d="M86.84 22.497c6.887-2.526 5.897 4.162 8.54 7.085.683 2.338.019 3.88-1.633 5.35-.597.275-.948.336-1.466.485a8 8 0 0 0-.529.821c-.28.5-.438.786-.703 1.295-.108.224-.33.672-.442.896a75 75 0 0 1-.709 1.363c-.21.389-.299.543-.535.925-.252.38-.357.531-.793 1.144-1.03 1.2-1.289 2.2-2.072 3.26-.395.368-.577.492-1.071.735-4.818.8-4.43-2.933-5.114-6.05-2.18 3.206-2.387 6.833-5.402 9.21-.531.26-.762.327-1.35.337-.527-.23-.696-.403-.693-.897 3.327-9.524 7.907-17.97 13.973-25.96"/><path fill="#8956f8" d="M18.314 92.73c-3.727 1.103-7.075 1.85-6.603-3.741.08-.951-.97-1.6-2.355-1.917-.552-.212-.731-.365-1.06-.838-.5-2.398-.057-4.522-.622-6.925a43 43 0 0 1-.317-4.785c.185-.61.312-.815.635-1.327 1.392-2.835 1.605-5.772 3.479-8.028 1.151-1.386 2.083-3.35 4.312-2.468 1.937.766 2.29 2.669 2.283 4.586-.004 1.147-.646 2.254-.085 3.764.494 1.221.668 2.158.89 3.44.068 1.288-.285 2.147-.603 3.348-.763 1.697-1.05 3.104-.273 4.885.206.738.289 1.17.382 1.94.055.784.07 1.234.09 2.027-.141 1.749.581 3.05.455 4.795-.16.563-.26.776-.608 1.243"/><path fill="#ab69ef" d="M206.238 203.64a1.53 1.53 0 0 1-.875.376c-4.341 1.284-8.55 2.292-13.067 3.579-.584.264-.84.329-1.485.401-.39.007-.652.117-.764.03-.553-.326-.963-.61-1.47-1.287-.182-5.305-3.907-5.513-7.424-5.998-4.061-.56-8.363.964-12.409-1.754-.345-1.212-.066-1.94.907-2.794 8.577-1.697 16.928-1.827 25.626-2.616 5.14.54 9.659 1.453 12.131 6.707.293 1.465-.045 2.376-1.17 3.355"/><path fill="#9d61f0" d="M18.707 56.178c2.178-2.454 4.708-3.478 7.74-4.25 3.614-.968 6.887-1.86 10.612-2.485 2.763 2.33 3.479 5.429 4.05 8.849-5.86 2.488-11.58 4.476-17.909 5.76-3.269-1.735-5.603-3.688-4.493-7.874"/><path fill="#d289ed" d="M211.758 145.345c-.662-4.664-3.567-7.99-5.684-11.712-.761-1.337-2.594-2.173-1.334-4.388 11.226 14.662 20.388 30.255 20.146 49.66-.04 3.217-.507 6.165-2.52 9.084-3.496-3.792-.552-8.177-1.134-12.733-.945-8.463-3.333-16.039-7.728-22.91-1.313-2.053-3.15-3.916-1.746-7"/><path fill="#c371fc" d="M222.67 173.734c.795 4.777-.351 9.135-.657 13.995.015.443.012.832-.025 1.024-.507 1.308-1.481 2.052-2.42 3.259-5.454 1.491-7.896.565-9.711-3.71.11-1.054.344-1.709.796-2.639.256-.488.368-.676.662-1.131.955-1.07 1.302-2.029 1.223-3.482.04-1.795-.04-3.264.713-5.001 2.798-2.569 5.096-6.042 9.418-2.315"/><path fill="#9b5ff3" d="M159.335 206.72c-1.235 2.395-2.116 4.57-3.23 7.009-1.009.67-1.837.641-2.967.431-1.833-1.82-2.228-4.178-3.842-6.243-.074-5.47 2.058-9.935 4.692-14.61 3.662-2.14 6.27-.865 8.775 2.06 1.098 4.565-.384 8.032-3.428 11.352"/><path fill="#b46eed" d="M211.314 186.537c-.42 6.244 3.99 4.411 7.403 4.605 1.7 1.18.294 2.169.034 3.577-.098.691-.31 1.085-.722 1.595-2.45.178-3.243 2.276-4.746 3.38-1.692 1.243-3.295 2.687-5.959 1.617-3.125-2.744-5.224-6.475-10.093-6.015-.846-1.99.546-2.72 1.657-3.092 4.45-1.494 7.886-4.456 11.723-7.395.75.395.905.848.703 1.728"/><path fill="#8158e6" d="M25.305 135.492C15.265 148.522 9.89 162.91 8.93 178.96c-.035.597-.507 1.168-1.106 1.918-2.266-14.239 3.61-26.538 10.223-38.603 1.666-3.04 3.727-5.862 5.895-8.962 1.792-.167 1.698.851 1.363 2.18"/><path fill="#8c59e9" d="M18.6 55.912c-.002 2.974 2.61 4.498 4.178 6.928.7 4.543-1.913 7.1-5.41 9.256-1.735-1.351-1.345-2.795-.806-4.243.594-1.599.335-3.335-1.057-3.984-1.884-.878-2.176 1.52-3.184 2.412-2.214 1.958-1.458 5.376-3.746 7.645-1.401-.405-.975-1.379-.82-2.603 1.594-6.78 5.294-11.573 10.846-15.411"/><path fill="#ad6dea" d="M38.331 50.276c-3.771.39-7.23 1.03-11.11 1.651 9.14-4.514 19.425-4.2 29.604-4.481 2.125-.059 4.265.405 6.813.78 3.443.325 3.035 2.376 2.591 4.303-.435 1.889-1.16 3.674-3.28 4.956-3.263.278-5.588-.656-6.71-3.485-1.12-2.826-3.41-3.006-5.987-3.242-3.876-.355-7.788 1.727-11.92-.482"/><path fill="#723dcc" d="M159.37 207c.026-3.587 2.571-6.454 2.72-10.451.253-1.171.68-1.821 1.788-2.377 2.607-.304 4.67-.015 6.104 2.345-.345.887-.664 1.374-1.017 2.16.433 2.745-.372 5.065-.891 7.763-.296.526-.448.716-.865 1.158-2.66-.01-5.055-.274-7.84-.597"/><path fill="#6135c6" d="M25.357 135.988c-.435-.935-.592-1.674-.938-2.634.023-2.516 2.668-3.964 2.031-6.954 2.65 3.806 5.752 7.627 9.585 11.285.26.505.338.722.351 1.28-1.482 2.114-2.55 4.216-5.062 5.25-.481-.221-.619-.406-.7-.933-.056-3.766-3.201-4.925-5.267-7.294"/><path fill="#8446cb" d="M62.738 57.304c.9-3.02 3.688-5.33 1.49-8.7 2.24-.247 4.674-.565 7.676.666 2.012 5.158.397 8.993-3.409 12.435-2.515.556-4.32-.01-5.955-2.017-.295-.95-.252-1.504.198-2.384"/><path fill="#aa5bda" d="M205.028 126.821c-4.049-.99-4.915-5.136-7.997-7.545-.303-.497-.405-.72-.482-1.313.53-1.854 1.475-2.956 3.251-3.749 3.946-.162 5.442 2.715 7.622 5.238.623 1.323.582 2.307-.098 3.595.05 1.867-1.252 2.538-2.296 3.774"/><path fill="#db8af1" d="M114.416 12.062c-4.787-1.258-9.474-.54-14.034-2.533 1.3-1.99 3.636-2.507 5.984-3.616 2.305-.683 4.31-1.023 6.82-.746 2.625 2.053 5.334 3.933 1.23 6.895"/><path fill="#8857ed" d="M153.617 214.132c.776-.784 1.305-.626 2.053-.232-3.22 7.961-7.318 15.432-12.979 22.328-1.087-2.662 1.553-4.219 2.26-6.866.034-6.82 3.578-11.293 8.666-15.23"/><path fill="#8158e6" d="M7.523 183.326c3.266 1.69 3.071 6.018 6.178 8.507 3.979 3.85 9.166 5.666 12.187 10.205-.807.712-1.483.77-2.523.75-7.84-3.003-12.641-8.575-15.273-16.539-.202-.453-.364-.54-.382-.86.01-.72-.122-1.206-.187-2.063"/><path fill="#956ee6" d="M65.326 207.703c-.763.23-1.208.3-1.987.331-1.47-.111-2.51.414-3.957.503-3.42.079-6.506.136-10.035.05-1.522-.117-2.637-.044-2.264-1.947 2.681-1.766 5.42-1.09 8.007-1.45 3.537-.49 7.397-.187 10.104-3.938.664-.641 1.124-.893 2.028-1.113.66-.036.924-.013 1.565.139 3.047 2.292 4.302 4.47.081 6.801-1.276.51-2.264.371-3.542.624"/><path fill="#dea2f1" d="M207.384 123.266c-.355-.725-.433-1.546-.539-2.682.873-6.087 5.032-10.202 7.85-15.35.746-.2 1.17-.21 1.91-.226.47.26.62.528.657 1.24-2.081 6.627-5.757 11.823-9.878 17.018"/><path fill="#8361ce" d="M46.702 206.706c.767.683 1.299 1.049 2.016 1.577-8.575.074-17.18-.776-25.393-5.198.171-.48.636-.753 1.379-1.053 2.664.62 5.182.02 7.923.838.85.221 1.332.371 2.177.64 4.066 1.306 8.238.572 11.898 3.196"/><path fill="#e3a8f3" d="M116.778 4.362c6.847-.287 12.546 1.911 16.999 7.468-2.702 1.848-4.778.045-7.38-.801-1.17-.609-1.81-1.348-2.952-1.988-2.053-1.917-4.998-.976-6.76-3.341-.136-.57-.129-.81.093-1.338"/><path fill="#975af3" d="M84.274 209.655c-3.207.441-5.085 2.722-7.776 4.118-.997-.387-1.48-1.08-1.49-2.369 0-.853.138-1.358.596-2.163 2.628-2.004 4.932-3.978 8.51-2.5.696 1.03.73 1.806.16 2.914"/><path fill="#b17ddd" d="M206.89 201.314c4.52.323 6.23-4.676 10.543-4.971-2.692 3.528-6.244 6.288-11.102 7.615-.106-.83.158-1.599.558-2.644"/><path fill="#955ec8" d="M167.282 207.933c-.337-.083-.346-.488-.345-.69 4.3-3.368 9.013-2.256 14.113-1.307.978.6 1.282 1.127 1.168 2.242-5.024 1.368-9.79.082-14.936-.245"/><path fill="#e7bded" d="M154.606 39.246c1.306 1.688 2.27 3.425 3.326 5.498.4.691.575 1.1.67 1.908.153.502.234.669.19 1.354-.697.886-1.33 1.035-2.333 1.026a4.2 4.2 0 0 1-1.27-.39c-.453-.325-.612-.484-.949-.93-.589-1.09-.614-2.016-1.103-3.148a10 10 0 0 1-.307-1.32c-.091-1.033-.01-1.713.3-2.704.39-.71.721-1.022 1.476-1.294"/><path fill="#b17ddd" d="M192.374 207.869c3.023-3.549 7.646-3.146 12.354-3.856-3.283 2.621-7.644 3.186-12.354 3.856"/><path fill="#8857ed" d="M137.429 242.174c-2.273-5.082-2.273-5.082 4.595-5.867-1.153 1.988-2.715 3.868-4.595 5.867"/><path fill="#eeb6f9" d="M136.927 13.746c3.494 2.158 5.552 5.084 6.968 9.007-1.224 1.078-2.138.747-3.324.004-2.206-2.429-4.582-4.32-5.101-7.791.3-.812.646-1.147 1.457-1.22m9.047 12.207c3.53.682 3.176 4.277 5.129 6.469.11.58.226.807.19 1.385-5.095.867-4.659-3.437-5.966-6.546.121-.624.221-.862.647-1.308"/><path fill="#8c59e9" d="M7.44 79.399c2.726 1.19 1.113 3.755 1.53 6.269-.33.718-.703.81-1.321.473-.24-2.268-.284-4.295-.21-6.742"/><path fill="#d289ed" d="M219.138 194.824c-1.575-.965-.316-2.066-.151-3.505.819-.959 1.59-1.606 2.663-2.314.481 2.294-1.041 3.888-2.512 5.819"/><path fill="#e4b7f3" d="M150.81 34.453c.176-.57.196-.791.253-1.346 2.152 1.008 2.755 3.302 3.77 5.75-.044.612-.258.83-.739 1.088-3.214-.462-3.206-2.877-3.284-5.492"/><path fill="#e3a8f3" d="M114.203 5.808c-2.326.16-4.45.124-7.033.09 1.591-1.03 3.684-1.908 6.44-1.775.53.142.673.266.875.664.014.459-.033.64-.282 1.02"/><path fill="#8361ce" d="M65.434 207.918c.423-.39 1.274-.725 2.472-1.108 1.88-.354 3.319-1.2 5.333-.697.57.325.772.497 1.113 1.043.112.637.085.9-.179 1.483-2.729-1.649-5.589-.596-8.739-.721"/><path fill="#6b49bb" d="M7.37 86.258c.418-.325.753-.293 1.337-.22.249.041.256.508.266.742.177 1.737.345 3.24.306 4.982-.802-1.557-1.397-3.351-1.909-5.504"/><path fill="#f8bcfb" d="M218.428 102.97c-2.224-1.929.048-2.575 1.212-3.847 1.007 1.462.569 2.738-1.212 3.847"/><path fill="#e3a8f3" d="M137.19 13.628c-.23.469-.545.685-1.025 1.135-1.968.572-2.56-.426-2.432-2.347.202-.347.305-.46.356-.516 1.477-.393 2.288.463 3.1 1.728"/><path fill="#f8bcfb" d="M220.388 98.026c-.163-1.563-1.087-3.513 1.109-4.953 1.332 1.825.44 3.356-1.11 4.953"/><path fill="#b17ddd" d="M188.707 206.638c.587.448.829.638 1.126 1.094-.914.276-1.93.344-3.327.36-.856.301-1.385.43-2.343.13-.39-.49-.408-.775-.16-1.403 1.613-1.204 2.995-1.221 4.704-.181"/><path fill="#8361ce" d="M59.38 208.632c.763-.765 1.802-1.657 3.436-.839-.91.438-2.007.675-3.436.839"/><path fill="#ab69ef" d="M183.99 206.587c.018.422.01.876.004 1.103.193.363.391.499.271.804-.742.21-1.165.251-1.9.21-.293-.41-.333-.73-.464-1.285-.059-2.088.848-2 2.089-.832"/><path fill="#a990eb" d="M73.97 209.283c.055-.534.144-.743.37-1.264.581-.495 1.034-.513 1.759-.157.43.679.46 1.134.158 1.891-.415.549-.638.804-1.079 1.193-.978-.07-1.17-.642-1.208-1.663"/><path fill="#eeb6f9" d="M144.124 22.877c1.11.371 1.805 1.12 2.14 2.547.036.321-.13.462-.213.534-2.29.881-2.68-.337-2.322-2.526.224-.388.338-.5.395-.555"/><path fill="#6b49bb" d="M9.7 95.17c1.15.272 1.707 1.187 1.526 2.638-1.182-.347-1.19-1.439-1.526-2.638M7.725 71.186c.287.524.344 1.304.462 2.471.062.388-.35.488-.561.475-.185-.905-.16-1.798.099-2.946"/><path fill="#b272d3" d="M161.669 48.342c-.162.349-.666.542-1.444.79-.754.109-1.15-.056-1.559-.74-.084-.333.154-.453.282-.414.878.095 1.628.151 2.72.364"/><path fill="#e4b7f3" d="M114.353 5.225c-.337-.24-.342-.661-.348-.872.751-.341 1.51-.472 2.628-.441.36.161.369.646.37.89-.69.822-1.467.928-2.65.423"/><path fill="#6135c6" d="M24.228 123.263q.735.415 1.563 1.746c-.858.052-1.31-.588-1.563-1.746"/><path fill="#b272d3" d="M158.723 46.71q-.436-.267-.739-1.359c.29.18.539.63.74 1.36"/><path fill="#f8bcfb" d="M222.014 89.368c.254-.354.503-.33 1.127-.268.13.668-.115 1.297-.696 2.04-.37-.39-.403-.892-.431-1.772"/><path fill="#955ec8" d="M184.235 208.718c-.288-.054-.307-.429-.277-.615.507-.184.983-.182 1.813-.122-.18.303-.714.547-1.536.737"/><path fill="#f8bcfb" d="M217.463 106.442c-.344-.031-.371-.314-.47-1.02.072-.717.268-.973.722-1.319.664.64.668 1.382-.252 2.339"/><path fill="#8446cb" d="M72.838 48.243c.202-.107.388.323.428.555.04.231-.279.59-.512.646-.234.057-.477-.177-.599-.294.05-.37.252-.598.683-.907"/><path fill="#b17ddd" d="M190.374 208.055c.046-.052.044-.053.04-.051s-.085.102-.04.05"/><path fill="#6b49bb" d="M11.774 101.281c.109-.087.357.177.323.269s-.312.071-.312.071-.12-.252-.011-.34m.54.879c.288-.15.507.033.676.541-.272.144-.504-.035-.676-.541"/><path fill="#b272d3" d="M164.746 48.456c.236.136-.12.44-.12.44s-.474-.073-.547-.221c.095-.217.263-.287.667-.22"/><path fill="#6b49bb" d="M7.753 185.282c.262-.016.348.138.328.467-.276.072-.41-.085-.328-.467"/><path fill="#b272d3" d="M167.701 48.262c.02.198-.222.373-.576.414.03-.235.173-.336.576-.414"/><path fill="#9459f8" d="M153.724 213.73c-2.937 4.884-5.944 9.603-8.578 14.957-1.57.623-2.996.923-4.786 1.274-1.964-2.076-.684-3.946.28-5.747.667-1.247 1.983-2.194 1.47-4.241 1.245-4.925 3.269-9.027 7.348-12.085 4.073.246 3.132 3.515 4.266 5.843"/><path fill="#956ee6" d="M84.28 210.196c-.275-.95-.29-1.673-.314-2.758.192-.467.393-.573.933-.623.995.312 1.53.765 2.388 1.37 5.015 6.35 8.039 13.58 12.799 19.697.605.778.74 1.822.142 3.123-.695.497-1.177.54-1.978.227-6.143-6.189-9.973-13.468-13.97-21.036"/><path fill="#c092ee" d="M131.28 235.778c-2.095 1.165-3.897 2.117-5.996 3.24-.803.253-1.234.118-1.705-.61-.192-1.842.684-2.879 1.753-3.671 4.17-3.09 6.77-7.696 11.086-11.058 1.437.07 2.175.703 2.909 1.905-.245 5.39-4.618 7.178-8.046 10.194"/><path fill="#8857ed" d="M131.362 235.985c1.87-3.39 5.661-5.518 7.423-9.714-.935-3.544.708-5.316 3.835-6.387 2.091 1.737.935 3.002-.202 4.187-1.413 1.474-1.647 3.435-2.372 5.578-2.76 2.412-4.773 5.425-8.684 6.336"/><path fill="#a170df" d="M121.892 239.501c-3.841 4.027-8.003 3.846-11.58-.418 2.952-2.347 6.014-1.823 9.462-1.37.928.33 1.394.635 2.118 1.788"/><path fill="#a07aee" d="M98.031 231.342c.47-.367 1.025-.406 1.992-.494 4.131.73 6.352 3.428 8.538 6.596.01.581-.038.813-.29 1.335-5.026-.15-7.622-3.588-10.24-7.437"/><path fill="#a170df" d="M123.366 237.608c.594.45.853.804 1.367 1.37-.47.531-1.194.852-2.222 1.228-.303.055-.404-.08-.459-.144-.19-.252-.328-.44-.492-.976.2-1.088.705-1.493 1.806-1.478m-14.991 1.474c-.315-.204-.323-.396-.336-.876.725-.803 1.378-.673 2.012.317.038.374-.052.474-.097.526-.454.05-.863.048-1.58.033"/><path fill="#8c54f8" d="M56.755 157.295c2.018-1.197 3.808-2.104 5.912-3.155 1.264-.353 2.212-.564 3.554-.328 4.82 1.973 9.051 4.314 13.485 7.027 2.108 2.44 4.65 1.46 7.295 1.715 1.169.029 1.948.127 3.085.546 4.002 2.298 8.765 3.672 6.396 9.955-1.737 1.486-3.416 1.551-5.555 1.162-7.037-3.32-14.335-4.518-21.621-6.954a5.3 5.3 0 0 1-1.333-.581c-2.886-3.067-5.51-5.876-9.962-6.578-.537-.258-.739-.39-1.173-.803-.395-.753-.415-1.232-.083-2.006"/><path fill="#c092ee" d="M79.332 162.178c-4.43-2.49-8.566-4.706-13.025-7.054-1.044-.879-2.414-.494-3.118-1.858-.198-.24-.6-.331-.805-.347-.885-.398-1.404-.973-2.176-1.695-6.733-6.833-14.091-12.72-18.92-21.372.304-.663.778-.865 1.671-1.005 5.469 1.92 8.217 6.56 11.66 10.229 8.29 8.838 18.136 14.96 29.478 18.894 1.55.537 3.283.751 4.354 2.713.046 1.214-.335 1.868-1.355 2.55-2.804.425-5.166.05-7.764-1.055"/><path fill="#b288ed" d="M18.37 92.177c-.559-1.643-.923-3.057-1.29-4.837.416-.81.433-1.336.131-2.098-.19-.667-.202-1.126-.22-1.928.012-1.789.019-3.234-.019-4.988.22-1.163.451-2.016.8-3.181 1.538-.548 1.995.466 2.541 1.873.35 1.39.348 2.42.418 3.808.052 1.062.054 1.763.18 2.792-.059 2.513.353 4.602 1.267 6.933.227 1.195.446 2.05.917 3.19 3.374 7.833 8.09 14.546 11.99 22.114.463 1.256.809 2.178.626 3.549-.309.81-.625 1.181-1.403 1.554-6.854-7.327-11.532-15.753-14.409-25.582-.567-1.197-.26-2.432-1.53-3.2"/><path fill="#723dcc" d="M34.839 120.373c-.14-1.066-.361-1.796-.675-2.809.748-2.143 1.945-3.61 4.443-4.04 4.2 1.476 5.327 5.73 8.636 8.241.087 3.138-1.198 5.457-3.091 7.86-.895.086-1.49-.036-2.543-.157-.458.001-.53.002-.547.016-1.216-3.558-4.98-5.294-6.223-9.111"/><path fill="#c58bf5" d="M34.717 120.162c2.412 2.905 6.5 4.546 6.61 9.128-3.853-1.261-5.287-4.654-7.322-7.897.076-.639.265-.893.712-1.231"/><path fill="#7e53d5" d="M46.71 149.657c3.716.44 5.331 3.705 7.905 6.287-4.88 1.258-6.725-1.94-7.905-6.287m-3.993-4.046c2.314-.353 3.586.786 4.242 3.04.054.336-.255.659-.409.82-2.513.245-3.714-1.033-3.833-3.86m-5.949-6.134c1.76-.364 2.785.353 2.984 2.364-2.084.934-3.015.014-2.984-2.364"/><path fill="#9258e7" d="M62.99 153.269c.874.256 1.747.754 2.807 1.488-.662.064-1.512-.107-2.589-.52-.226-.24-.22-.725-.219-.968"/><path fill="#a170df" d="M18.13 92.205c1.32.025 1.852.854 1.762 2.452-.483-.225-.938-.783-1.609-1.508-.21-.34-.203-.514-.153-.944"/><path fill="#9258e7" d="M60.066 151.34c.84-.266 1.534.102 2.004 1.27-.828.298-1.626.071-2.004-1.27"/><path fill="#7e53d5" d="M39.99 142.025c.661.413 1.208.934 1.615 1.915-1.245.646-1.886.166-2.035-1.248.077-.336.304-.558.42-.667m16.755 14.973c.257.366.276.723.29 1.35-.776 1.262-1.068.453-1.213-.746.212-.64.686-.611.923-.604m-1.818-.901c.407.013.646.219.977.667.13.198-.177.479-.332.618-.336.008-.518-.123-.866-.547-.167-.292.09-.59.221-.738m-13.054-11.942c.436-.028.684.168 1.018.621.13.2-.197.494-.362.64-.346.026-.529-.094-.898-.483-.187-.27.098-.608.242-.778m-5.656-5.122c-.11-.256-.06-.658-.03-.86.258-.034.467.151.795.516.137.16.012.31-.052.383-.244.121-.423.169-.713-.04"/><path fill="#8252f9" d="M33.23 204.28c-2.805-.615-5.647.626-8.039-1.958-.727-2.787-3.19-2.123-4.676-3.03-2.727-1.666-4.852-3.798-6.376-6.982 2.291.06 3.656-1.726 5.577-3.16 4.29-.503 6.06 3.697 9.879 4.44 1.401.407 2.527.364 3.99.568.584.185.814.287 1.353.615 5.12 3.996 11.007 2.85 16.441 3.676 4.52.687 9.274-1 14.155 1.904.845 3.993-.909 5.108-3.99 5.755-4.555.957-9.101.811-14.138.902-4.584-.486-8.698-.986-13.116-1.745-.465-.428-.627-.596-1.06-.985"/><path fill="#8158e6" d="M30.33 194.889c-4.214-.59-7.008-3.02-10.018-5.741-3.926-7.714-4.903-15.399-1.523-23.334a20 20 0 0 0 1.186-3.77c1.299-6.373 3.76-12.156 8.922-16.751 1.831 3.058.05 5.316-1.082 7.64-3.072 6.302-5.434 12.74-6.419 19.787-1.156 8.268 1.497 14.293 8.673 18.419.723.416 1.376.927 2.033 1.95.114 1.359-.776 1.378-1.772 1.8m.08-51.858c.27-.09.393.354.456.576.695 1.068.116 1.49-.883 1.937-.36.048-.695-.272-.864-.433-.036-.941.217-1.644 1.29-2.08"/><path fill="#020103" d="M170.424 196.962c-2.28-.59-4.091-1.134-6.259-1.796-2.362-4.182.872-7.59 1.145-11.723.16-.568.23-.792.411-1.343.485-1.156.711-2.02.779-3.27.086-1.266.131-2.194.37-3.46.264-1.045.523-1.717.911-2.73 1.398-4.533 1.04-9.277 4.607-13.036 4.708-3.218 8.458-6.977 12.4-11.03 2.165-2.11 4.12-3.95 6.176-6.167 1.992-1.637 3.113-3.748 5.594-4.73 1.796.45 2.516 1.595 3.198 3.22.14.314.17.734.285.91 7.771 8.863 12.039 19.048 13.484 30.833-.284 2.72-.718 5.065-.487 7.8.061.576.102.803.23 1.363.018 1.272-.319 2.096-1.297 2.864-.33.077-.232.112-.243.06-.018.171-.023.392-.361.618-3.355 5.27-8.546 7.345-14.12 9.468-8.925 1.183-17.572 2.612-26.823 2.15"/><path fill="#e38df4" d="M196.935 117.61c-.014.542-.033.712-.08 1.137-1.678.233-3.317.418-4.037-1.745-.592-1.78-2.04-3.064-3.69-3.873-1.408-.69-2.871-3.262-4.551-.775-1.287 1.904-2.094 4.235.412 6.155 1.31 1.005 2.484 2.184 3.766 3.227 1.835 1.492 2.54 3.394 2.232 6.121-.447.681-.925.805-1.803.692-3.937-2.886-6.352-6.742-9.42-10.003-11.134-11.84-23.554-21.493-40.486-24.337-1.022-1.214-1.022-1.214-1.605-.575-1.512.778-2.755.747-4.367.234-.782-.433-1.138-.785-1.551-1.552.42-3.841 3.063-3.735 5.59-3.485 2.82.279 5.612.649 8.46.441 2.93-.213 4.202-1.612 3.722-4.897.267-.529.427-.713.905-1.083 3.838-1.08 6.935.467 9.913 1.812 14.65 6.614 25.862 17.413 35.695 29.827.52.657.786 1.463.895 2.68"/><path fill="#cb7df4" d="M222.95 173.63c-3.366-1.716-5.663.807-8.545 2.346-1.765-5.755-2.09-11.803-4.53-17.416-1.206-2.77-3.321-5.448-2.119-9.198.624-2.26 1.004-4.175 3.886-4.324.258 1.547.565 3.111 1.56 4.213 6.166 6.828 7.712 15.494 9.749 24.38"/><path fill="#d289ed" d="M207.638 148.914c2.58 8.756 7.273 16.838 6.403 26.665 0 2.16-.018 3.864-.04 5.995-.243.645-.481.862-1.196.997-.476-.082-.479-.314-.368-.349.034-2.77.083-5.505.045-8.65-1.185-11.754-6.442-21.446-12.324-31.238 4.77-.576 5.664 3.245 7.48 6.58"/><path fill="#9b51d2" d="M189.076 127.936c.72.046 1.062.106 1.655.25 1.77 3.089 3.525 5.925 6.232 8.503.29.452.373.634.264 1.048-1.69 1.77-3.188 3.31-4.983 4.977-3.27-2.189-5.257-5.348-7.597-8.648.17-3.073 1.391-5.113 4.43-6.13"/><path fill="#d289ed" d="M197.28 138.174c-.224-.374-.204-.543-.146-.963 2.028.08 2.89 1.3 2.785 3.633-1.48-.018-1.306-1.77-2.64-2.67"/><path fill="#ee9cf3" d="M164.783 51.36c11.843-.999 23.37-1.996 34.78 1.472 5.324 1.619 10.112 3.867 14.381 7.8-.9.197-1.901.139-2.857-.102-1.084-.273-1.982-.179-2.58.839-.603 1.022-.228 1.859.535 2.663 7.243 7.636 6.05 17.049 5.048 26.188-.365 3.334-4.064 5.966-3.096 10.364-.94 1.243-1.859.986-3.033.077-.369-.525-.475-.764-.64-1.391-.064-.916-.02-1.44.138-2.346 1.456-5.17 2.897-9.926 3.432-14.919.87-8.104-1.906-13.426-9.251-16.87-8.664-4.062-17.915-4.591-27.283-4.18-1.817.079-3.618.567-5.848.074-2.575-1.182-3.83-3-4.665-5.66-.262-1.605-.075-2.708.939-4.01"/><path fill="#e58cf2" d="M207.79 99.867c1.102.469 1.85.772 2.9 1.104 2.53.145 2.288 2.809 4.124 3.806-.805 5.989-4.028 10.519-7.815 15.168-2.808-.777-3.423-4.208-6.68-5.009-1.392-1.191-1.18-2.573-.476-3.643 2.537-3.859 3.31-8.882 7.947-11.426"/><path fill="#ee9cf3" d="M214.166 61.26c.986-.234 2.178-.315 2.772 1.37-1.07.326-1.998-.093-2.772-1.37m2.892 2.032c.285.177.592.647.93 1.406-.282-.178-.596-.646-.93-1.406"/><path fill="#eeb6f9" d="M164.69 51.03c.353 1.063.332 2.12.307 3.576-.175.577-.346.756-.834 1.132-1.57.666-2.772.502-4.243-.31-.472-.398-.64-.58-1.112-1.427-.307-.907-.31-1.15-.173-1.723.35-.443.561-.554 1.073-.47 1.736-.132 3.172-.458 4.982-.779"/><path fill="#ecc1fa" d="M160.008 51.65c0 .352-.493.36-.74.364-.48.466-.803.86-1.597 1.193-2.193-1.087-2.73-2.654-1.854-4.939.884-.277 1.512-.263 2.452-.229.593.303.873.586 1.418 1.008.283.843.302 1.547.32 2.602"/><path fill="#030105" d="M44.144 130.041c-1.59-3.537 1.318-5.106 2.768-7.67.057-1.648.892-2.51 1.854-3.695a19 19 0 0 1 1.429-1.562c2.53-2.248 3.956-5.549 8.077-4.941.778.867 1.031 1.59 1.194 2.748-.005 4.51.355 8.665-.074 12.74-.658 6.254.968 11.299 6.485 15.219.581.587.902.923 1.477 1.45 3.569.14 1.597-1.897 1.44-3.568-.312-1.568-.281-2.805-.307-4.426.005-1.738-.48-2.989-.857-4.692-.58-7.1.321-13.72.908-20.783.59-2.873 1.242-5.306.974-8.27.009-2.318-.122-4.234.572-6.47.714-1.772 1.538-3.098 1.427-5.09-.132-2.527.09-4.61 1.058-6.978 2.777-7.052 2.926-14.507 6.745-21.192 2.27-1.554 4.347-1.109 6.776-.5 4.348.936 7.793 3.76 12.422 3.214.484-.252.673-.361 1.154-.617 1.667-.737 3.056-1.304 4.449-2.518.431-.319.609-.44 1.066-.716.862-.738 2.282-1.037.693-2.343-.49-.161-.685-.233-1.174-.42a83 83 0 0 1-1.174-.482 36 36 0 0 1-1.174-.516c-2.667-1.151-5.11-1.964-7.945-2.599a10 10 0 0 1-1.24-.29c-.893-.295-1.444-.6-2.353-.835a50 50 0 0 1-1.206-.365c-.91-.35-1.558-.458-2.52-.742-1.517-.593-2.395-1.393-2.985-2.96-.235-2.028.207-3.456 1.897-4.7.35-.173.015-.47.186-.325.321-1.238.953-2.45 1.852-3.787.326-.104.209-.133.223-.074-.024-.37.136-.711.765-1.027.299-.048.172-.102.21-.044.08-.558.27-1.144.597-1.975.2-.233.162-.239.172-.222.442-.446.484-1.087 1.04-1.733.283-.112.173-.117.193-.066.01-.324.093-.678.51-1.135 2.03-1.073 2.31-3.156 3.652-4.802 4.616-6.268 9.739-11.477 17.431-13.985.895-1.274 1.922-1.549 3.422-1.692 4.282.352 7.817 1.718 11.4 4.006 1.073.777 1.592 1.613 2.663 2.363 1.328 1.108 2.288 2.099 3.504 3.325 5.356 6.337 9.387 13.11 13.026 20.543.22.545.297.768.45 1.334.165 1.05.417 1.714.64 2.755.081.591.094.83.065 1.427-1.258 4.094-5.535 2.551-7.925 4.942-.696.348-1.116.464-1.86.514-.877-.049-1.445-.158-2.282.037-.436.15-.61.215-1.046.379-.439.165-.616.231-1.329.504-.719.278-.901.35-1.364.52-.474.157-.668.214-1.14.398-1.409.724-2.696.88-4.152 1.546-11.411 4.52-21.488 10.635-30.916 18.503-10.346 8.833-17.243 19.338-19.738 32.889-.23 1.064-.551 1.725-.706 2.808-.097 2.571-.065 4.779-.07 7.347.028 1.533-.091 2.715.333 4.196.196.545.264.766.405 1.325.234 2.582.161 4.878 1.673 7.163.58 2.682 2.063 4.413 3.878 6.363 6.447 11.57 21.894 15.986 35.316 8.667 2.161-1.179 4.204-3.742 7.287-1.058-1.47 6.563-6.919 8.907-11.751 11.699-2.496 1.442-5.397 2.294-8.656 2.98-.843.231-1.336.306-2.199.378-1.1.102-1.793.34-2.841.678-1.835.333-3.318.293-5.172.138-1.1-.198-1.778-.507-2.853-.78-1.125-.157-1.801-.447-2.642-1.211-18.785-4.843-32.205-16.656-44.107-31.242"/><path fill="#e38df4" d="M128.072 20.229a407 407 0 0 0-10.744-4.35c-1.547-.686-3.124.01-4.217-1.564.14-.81.396-1.305.764-2.055 3.814-2.004-.344-3.801.136-5.912-.007-.512-.004-.682.002-1.108.75-.24 1.497-.226 2.618-.204 2.172 1.949 5.372-.094 7.186 2.652.26 1.234.866 1.68 1.902 2.136 3.035-.517 4.956 1.88 7.838 2.224.466 1.136.929 2.036 2.163 2.802a89 89 0 0 1 5.225 6.82c-.951 4.958-2.041 5.481-7.596 3.581-1.303-1.061-2.197-1.897-3.211-3.02-.703-.789-1.247-1.334-2.066-2.002"/><path fill="#db8af1" d="M112.759 14.12c1.401.339 2.567.797 3.968 1.458-.8.29-1.835.379-3.261.464-1.837-.217-2.314-.727-.707-1.923"/><path fill="#c072fa" d="M72.365 49.839c.155-.338.54-.587.74-.699.202-.111.548-.131.722-.137 4.75-.304 8.178 3.74 6.73 8.172-.81 2.48-1.426 5.098-2.924 7.758-.29 2.57-.994 4.531-2.94 6.312-3.78 1.323-5.59-1.14-7.86-3.434-.646-.962-.83-1.693-.875-2.832.078-.856.191-1.33.511-2.115.441-.7.75-1.058 1.34-1.634 2.943-3.345 3.305-7.34 4.556-11.391"/><path fill="#c67bf5" d="M76.333 65.231c.407-2.203.881-4.33 1.895-6.156 2.655-4.781.626-7.71-3.879-10.028 1.35-2.893 2.645-5.905 3.713-9.046.516-1.519 1.325-3.41 3.485-2.73 2.253.71.9 2.432.624 3.755-.581 2.779.544 4.11 3.76 4.195-.004 1.432-.427 2.785-1.05 4.437.556 4.85-2.054 8.342-4.18 12.327-1.827.98-1.664 3.723-4.368 3.246"/><path fill="#c48bec" d="M88 41.334c-.087 1.168.167 2.683-1.348 3.796-.697-1.404-.739-2.851 1.347-3.796m1.792-3.116c.154.413.066 1.036-.27 1.857-.156-.417-.064-1.032.27-1.857m1.246-1.935c.03.418-.23.946-.756 1.613-.022-.409.222-.956.756-1.613m.77-1.418c.093.436-.004.775-.325 1.26-.258-.393-.73-1.036.325-1.26M89.058 40.3c.085.217-.098.523-.531.937-.08-.21.093-.53.531-.937"/><path fill="#a170df" d="M19.357 78.017c-.572-.963-.77-1.835-1.218-2.946-.528-.982-.805-1.726-1.109-2.773 1.884-3.083 3.796-5.862 5.862-8.942 5.971-1.585 11.253-4.734 17.69-5.274 2.587-1.568 4.737-2.121 6.81.639-.66 2.853-2.9 2.8-4.782 3.183-3.588.73-7.184 1.307-10.633 2.684-4.928 1.967-8.562 5.044-10.13 10.268-.38 1.266-.787 2.574-2.49 3.161m-2.635.247c1.65 1.098 1.443 2.63.508 4.46-1.568-1.11-1.39-2.636-.508-4.46m.301 7.093c.61.1.918.597.237 1.456-.204-.271-.226-.702-.237-1.456"/><path fill="#a563fa" d="M184.424 207.006c-.924-.68-1.504-.915-2.39-.058-4.827.176-9.489.123-14.623.08-.526-2.61-.656-5.249 1.253-7.799 4.562-.243 8.859-.299 13.152-.2 2.858.067 5.532.779 7.645 2.932 1.51 1.54 2.07 3.005-.247 4.74-1.597.272-2.986.287-4.79.305"/><path fill="#ae67fa" d="M47.26 59.26c-1.929-2.022-3.918-.901-6.031-1.076-1.774-2.395-4.648-4.064-3.259-7.823 5.138-.648 10.158-1.691 15.313-1.434 2.371.119 3.99.854 4.187 3.166.266 3.142 2.313 4.023 5.178 4.727.322.706.305 1.266.306 2.247-.213.512-.446.605-1.054.722-3.81-.487-7.247-.512-11.047.093-.613.16-.865.2-1.503.231-.901-.102-1.377-.292-2.09-.853"/><path fill="#cb7df4" d="M212.196 182.688c.407-.293.681-.386 1.378-.583.352 1.1.489 2.423-1.57 2.657-.223-.637-.082-1.256.192-2.074m-1.13 2.919c.04-.412.112-.566.417-.826.19.487.146 1.079-.101 1.889-.23-.123-.257-.465-.316-1.063"/><path fill="#a863f2" d="M167.69 178.646c.005 1.15-.133 1.982-.54 3.056-1.254 4.349-2.24 8.456-3.283 12.955-.484.668-.912.946-1.554 1.365-2.106-1.457-3.906-3.299-7.076-2.167-.685-.247-.939-.683-1.121-1.568.373-3.603.93-6.792 2.5-10.096 1.063-2.317 1.214-4.553 2.352-6.835 3.356-3.448 5.325-.703 7.684 1.463.48.67.706 1.08 1.038 1.827"/><path fill="#ca9df5" d="M154.737 191.797c.293.632.258 1.074.206 1.846-1.676 4.734-3.333 9.138-5.053 13.914-2.238 4.18-4.415 7.988-6.738 12.114-2.156 1.571-2.917 3.742-4.158 5.957-.648-.154-1.194-.632-1.873-1.356-1.171-2.22.082-3.729.99-5.225 2.73-4.501 4.973-9.247 7.358-14.331 2.032-3.742 2.939-7.537 4.617-11.423.38-.495.555-.676 1.048-1.064 1.262-.636 2.24-.835 3.603-.432"/><path fill="#020103" d="M29.537 145.934c.46-.755.834-1.168 1.3-1.843 1.836-1.752 1.927-4.662 4.897-5.364.372.05.695.352.913.385.971.996 1.724 1.957 2.738 3.082.713.801 1.163 1.44 1.836 2.275.382.437.572.653.97.967 1.355 1.347 2.537 2.568 3.961 3.993 2.86 2.278 4.415 5.574 8.095 6.936.42.45.593.688.993 1.024.544.49.91.847 1.531 1.215.402.098.548.183.936.342 3.652 1.824 7.023 3.634 10.136 6.47.264.214.386.463.523.483 6.885 2.793 13.837 4.895 21.33 6.523 2.046.247 3.743.345 5.86.36 1.024-.486 1.613-.916 2.676-1.195 1.298-.043 2.201-.266 3.429-.633 4.34-.761 8.293-1.636 12.357-3.378a7.7 7.7 0 0 0 1.177-.626 34 34 0 0 1 1.717-1.08c7.912-4.395 13.962-10.14 17.885-18.421 2.16-4.605 3.117-9.13 3.034-14.204-.51-2.877-.513-5.487-1.619-8.235-1.75-5.735-5.92-8.641-10.911-11.252-.398-.456-.521-.672-.65-1.268.115-.613.232-.844.63-1.35 7.824-3.27 13.88-.64 19.454 5.052 8.154 14.308 5.566 33.733-5.998 46.908-1.308 1.49-2.657 2.952-4.263 4.686-6.463 5.977-13.094 11.085-21.074 14.862-.939.399-1.577.617-2.492 1.025-.485.263-.68.367-1.17.629l-1.196.641c-.516.261-.728.361-1.255.627-8.474 3.537-16.479 7.382-25.777 8.219-1.957-1.054-2.592-2.677-3.417-4.589-.436-1.213-.447-2.167-.97-3.336-.256-.513-.356-.72-.588-1.246-1.094-7.245-4.612-11.774-12.418-13.198.805 6.522 2.995 12.234 4.575 18.442.082.576.088.81.022 1.382.063.83-1.37.967-.186 1.954.41 1.029.37 1.745-.124 2.769-2.555 1.61-5.149 2.006-8.14 2.495-8.921.098-17.423.147-25.962-3.056-.382-.225-.765-.365-.968-.385-.425-.142-.647-.264-.95-.756-14.101-6.193-14.621-14.318-11.906-27.104 1.596-7.514 5.446-14.152 9.059-21.227"/><path fill="#010003" d="M61.878 59.07c.17.285.611.498.853.457 1.73.376 3.216.793 5.018 1.336.263.543.211.96.18 1.692-.098.465-.217.616-.321 1.054-.227 1.042-.47 1.795-.794 2.938.41 1.6.637 2.836.234 4.5-1.987 4.71-2.541 9.396-3.56 14.333.003.869-.037 1.362-.2 2.213-.601 6.618-5.101 10.013-9.772 13.715-.606.558-.954.871-1.549 1.43-4.682 3.456-7.294 8.641-12.564 11.37-1.991.804-2.587 3.002-4.989 3.186-3.994-6.312-7.69-12.587-11.252-18.938-.603-1.074-1.415-2.255-1.232-4.034-.55-1.133-.353-1.999-.718-3.048-.653-2.409-1.1-4.583-1.68-7.059-.043-.743-.034-1.185-.339-1.87-.229-1.354-.226-2.468-.217-4 2.01-14.31 12.623-16.458 23.986-18.508 1.129-.203 2.29-.228 3.728-.592.754-.249 1.214-.243 2.01-.156 2.518.156 4.686-.238 7.227-.089 1.06 0 1.76 0 2.803-.009a9.2 9.2 0 0 0 2-.232c.541-.047.76-.011 1.148.31"/><path fill="#030104" d="M208.165 99.743c-2.697 5.024-5.374 9.758-8.124 14.834-.92 1.229-1.766 2.117-2.856 3.205-6.676-6.182-12.126-13.47-19.16-19.33-7.858-6.545-16.404-11.612-26.507-14.609-8.223-.316-16.077-1.22-23.891.555-1.303.296-2.52.79-4.113 1.343-.55.274-.772.373-1.329.6-3.968 1.498-7.334 3.36-10.713 5.869-.544.552-.864.858-1.432 1.377-.87.822-1.528 1.392-2.343 2.274-3.188 2.953-6.016 5.771-7.772 9.877-4.187 7.922-5.434 15.742-1.794 24.257 1.62 4.524 5.274 6.557 8.528 9.057 1.62 1.244 4.457 2.82.418 5.198-2.95.219-5.538.469-8.404-.587-.868-.18-1.364-.275-2.21-.51-2.204-1.279-3.751-2.858-5.958-4.143-1.573-1.387-2.674-2.692-3.595-4.592-.433-2.297-1.192-4.098-2.12-6.24-1.315-2.766-1.331-5.336-1.108-8.316.207-1.378.74-2.279.803-3.679-.363-6.43 2.162-11.8 4.978-16.71 4.77-8.315 10.76-15.797 19.458-21.138 4.066-1.694 7.247-4.238 11.139-6.233a11.7 11.7 0 0 1 1.88-1.146c7.915-2.78 15.178-6.322 23.457-8.065 2.859-1.05 5.357-1.836 7.825.76.677.908 1.013 1.572 1.462 2.586.32.77.457 1.222.638 2.02.101.56.128.785.18 1.344.132 1.451.642 2.429 1.24 3.73.226.513.31.721.5 1.252.159.541.21.76.378 1.299 1.1 4.564 5.086 5.022 8.436 6.781 1.293.426 1.97.27 1.658-.964-1.287-5.099-2.08-10.337-4.422-15.542-.794-3.714-.963-6.789 4.266-6.553 11.713-1.43 22.826-.788 33.601 3.219 9.247 3.438 13.04 10.605 11.515 20.45-.74 4.776-1.85 9.36-3.745 14.155-.107.555-.222.731-.393 1.216-.154.476-.252.643-.37 1.099"/><path fill="#e7e3fd" d="M76.315 207.872c-.644.103-.99.042-1.586-.092-.251-.073-.387-.534-.468-.76-2.278-1.41-1.717-5.056-5.041-5.672-.273-.196-.73-.303-.964-.332-.225-3.698 4.712-3.606 5.224-7.302 3.633-4.288 3.643.644 5.433 1.878.418.353.584.497.986.87 1.276 1.92 4.926 1.614 3.581 5.156-2.75 1.132-5.288 1.994-6.259 5.278-.307.471-.457.642-.906.976"/><path fill="#b288ed" d="M74.31 193.74c-.066 4.024-3.27 5.09-6.124 6.953-.609.303-1.055.31-1.836.317-.334-.002-.35-.013-.355-.02-1.223-1.777-3.745-1.454-4.987-3.468 2.047-.852 4.06-1.368 6.343-1.775 2.241-1.08 4.072-2.65 6.96-2.008"/><path fill="#a990eb" d="M69.027 201.447c3.371-.481 4.944 1.339 5.155 4.978-1.704.383-3.406.398-5.517.374 1.72-1.398 2.652-2.96.362-5.352"/><path fill="#8158e6" d="M33.091 204.256c.188-.105.45.072.776.54-.181.09-.436-.094-.776-.54"/><path fill="#db8af1" d="M125.916 9.689c-1.08.696-2.264 1.955-3.356.55-.573-.736.267-1.43 1.171-2.089 1.147-.03 1.902.249 2.185 1.539"/><path fill="#a07aee" d="M82.68 201.274c.274-2.893-3.095-1.48-3.787-3.767 1.363-2.484 3.564-3.06 6.29-3.225 2.634 1.855 3.588 5.505 7.72 5.266.58.524.79.914.929 1.683-.065.98-.328 1.54-1.072 2.128-.602.233-.958.283-1.56.282-.239.01-.683.157-.887.27-.468.288-.736.45-1.22.718-.501.249-.796.373-1.314.591a6.2 6.2 0 0 0-1.045.667c-.532.432-.664.547-1.272.895-.646.238-.818.245-1.248.273-3.104-.252-5.17 1.614-7.84 2.83-.32-.286-.333-.733-.351-1.515a5 5 0 0 1 .127-1.08c1.776-2.485 3.51-4.702 6.53-6.016"/><path fill="#e794f4" d="M133.035 25.354c2.528-.842 5.976 1.12 7.712-3.102 1.037.07 1.808.395 2.893.756.351 1.181.318 2.36 1.997 2.953 1.66 2.755 2.165 5.895 4.995 8.041 1.156 1.922 1.978 3.74 3.027 5.8.248.958.27 1.676.294 2.755-1.773 2.852-3.457 5.524-7.574 3.75-4.384-7.198-7.82-14.543-13.344-20.953"/><path fill="#efe7fe" d="M155.803 47.971c.748 1.516 1.226 3.026 1.953 4.761.421.1.593-.024.998.066.233.215.245.204.241.207.228.214.448.438.834.826 1.013 1.206 2.209 1.15 3.726 1.207.592 3.776-4.13 2.68-5.086 5.741-.393.748-.697 1.125-1.358 1.673-1.03.486-1.763.522-2.843.193-1.849-2.535-4.087-4.11-6.577-5.886-.421-4.01 4.253-3.407 5.124-6.555.486-.961.945-1.5 1.85-2.083.508-.147.688-.151 1.138-.15"/><path fill="#eeb6f9" d="M154.985 47.967c-.176.562-.36 1.113-.777 1.845-2.11 1.976-4.07 2.977-6.584.507-.342-.474-.46-.63-.597-1.078-.341-.633-.526-1.034-.626-1.84-.184-.484-.294-.636-.376-1.065 3.112.374 4.87-2.178 7.582-3.341.36.102.374.282.397.734.863 1.286.313 2.525.754 3.921.205.283.219.307.227.317"/><path fill="#e4b7f3" d="M154.974 47.579c-1.098-.49-.944-1.703-.964-3.22 1.064.494.978 1.692.964 3.22"/><path fill="#040106" d="M86.614 204.223c.61-.357 1.153-.465 2.079-.734.564-.128.746-.096 1.109-.273.18-.209.204-.203.21-.213.152-.125.298-.24.71-.276.813-.038 1.36-.156 2.096-.488 1.454-1.595 3.022-2.594 4.785-3.063 9.328-2.486 17.7-7.063 26.346-11.922 10.515-6.632 19.676-14.17 26.248-24.956 6.199-8.233 8.279-17.634 9.024-27.123.382-4.865-1.1-10.059-3.058-15.186-7.855-15.21-19.703-20.426-35.28-15.665-4.02 1.228-7.493 3.447-10.556 6.877-.62.953-1.147 1.49-2.105 2.12-5.764-1.361-1.807-3.903-.808-6.406 2.012-2.866 4.072-5.191 6.725-7.452 3.5-2.437 7.025-4.095 10.86-5.917.51-.294.725-.396 1.278-.613 2.247-.524 4.139-.358 6.383.033 1.744-.014 3.13-.033 4.925-.128.577-.128.745-.18 1.168-.162 3.645 2.587 7.866 1.245 11.616 2.642 14.459 5.386 24.765 15.913 34.664 27.037 1.422 1.6 2.76 3.274 4.279 5.24-1.29 2.115-2.722 3.902-4.23 6.018-1.866 5.106-4.908 8.771-9.972 10.964-3.887-2.2-2.097-5.707-2.63-9.051-.374-2.397-.478-4.372-.11-6.762-.173-3.023-.131-5.65-.287-8.633-.136-.824-.237-1.282-.502-2.042-1.56-2.956-3.92-4.682-6.237-6.427-.66-.497-1.417-1.704-2.381-.582-.527.613-.103 1.557.125 2.681.236 1.02.282 1.717.384 2.763a12.5 12.5 0 0 1 .123 2.092c-.19 1.927-.2 3.507.073 5.415.092.55.107.773.092 1.323-.146.944-.263 1.561.244 2.465.216.556.279.794.383 1.411.142 5.554.085 10.73.065 16.308-.023.67-.037.937-.095 1.597-.22 1.41-.769 2.326-.84 3.748-.582 8.314-2.5 15.964-5.028 23.848a9 9 0 0 1-.735 1.937 11 11 0 0 1-.658 1.11c-.343.695-1.264.86-.561 1.879.095.523.098.742.033 1.292-1.66 3.983-1.522 8.268-4.44 11.757-.284.216-.622.335-.772.434-4.693 2.005-8.526-.99-12.565-1.972-4.014-.976-7.112-.09-10.266 2.094-2.421 1.677-2.487 2.895.399 3.963 4.055 1.502 8.272 2.508 12.318 4.026 1.976.742 4.283.989 5.503 3.543-2.223 6.873-5.83 12.743-9.67 18.883-3.711 5.374-7.874 9.874-13.152 13.765-.71.392-1.2.52-1.862.838-.221.431-.269.675-.683.855-3.705-.102-7.044-.141-10.836-.21-.934-.334-1.415-.64-2.2-.977-2.648-2.306-4.99-4.583-7.618-7.005-5.428-6.866-10.071-13.895-13.832-21.843-.788-.263-1.157-.545-1.358-1.454a22 22 0 0 1 .023-2.266c.033-.377.375-.608.43-.807.224-.167.392-.134.627-.35"/><path fill="#a07aee" d="M85.67 206.72c.421.686.627 1.089.913 1.82q-.643-.1-1.52-1.194c-.075-.333-.064-.345-.06-.35.153-.19.302-.375.666-.276"/><path fill="#c092ee" d="M121.124 239.278c.019-.328.15-.45.522-.691.263.136.284.39.329 1.028-.294.304-.548.132-.851-.337"/><path fill="#9556ef" d="M115.578 167.583c-3.912 2.558-8.135 4.127-13.176 4.418-1.072.696-1.946.42-3.042.546-1.077.123-1.846.22-3 .233.841-5.037-3.103-6.216-6.276-8.365 3.266-2.638 7.218-.612 11.132-1.85 5.064-.221 9.784-.647 13.534 3.747.414.488.564.696.828 1.271"/><path fill="#7e53d5" d="M89.918 172.249c-7.442.032-14.327-2.613-21.23-6.078 7.229.625 13.977 3.86 21.23 6.078"/><path fill="#be7ff3" d="M103.194 163.75c-4.248.247-8.262.269-12.738.308-1.184-.02-1.904-.06-2.985-.104-.587-.13-.814-.253-.762-.646.544-.773.81-1.276 1.185-2.043.872-.226 1.634-.19 2.762-.041.814.449 1.33.48 2.09.573 1.894.074 3.562.013 5.638.043.908-.18 1.441-.335 2.289-.39.73-.122 1.18-.224 1.977-.278.701.32.93.676 1.047 1.43-.093.524-.18.723-.503 1.148"/><path fill="#7e53d5" d="M68.083 165.289c-3.586-1.14-6.817-3.246-10.004-5.955 4.478-.448 7.32 2.428 10.004 5.955"/><path fill="#9556ef" d="M86.582 163.034c.406.005.464.46.496.687-2.596-.234-5.585 1.55-7.955-1.432 2.293-.011 4.673.364 7.459.745"/><path fill="#a170df" d="M20.978 91.358c1.03.18.642 1.176.82 2.286-.78-.266-.872-1.096-.82-2.286m-2.042-9.013c.234.207.444.654.559 1.335-.258-.21-.42-.652-.559-1.335"/><path fill="#9258e7" d="M39.24 114.43c3.582-4.264 7.339-8.257 11.407-12.386 2.7 3.575-.463 5.604-2.263 7.909-3.649 4.672-3.7 4.784 1.297 8.72-.588 1.218-1.36 2.142-2.41 3.208-4.45-.592-5.255-4.815-8.03-7.45"/><path fill="#956ee6" d="M60.58 197.107c1.875 1.431 4.472.962 5.354 3.548-7.963-1.857-16.305.19-24.395-1.567-2.781-.603-5.466-.92-7.511-3.571 8.64.061 17.256 2.325 26.551 1.59m-28.605-3.157c.682.027.903.242 1.076.82-.833.342-1.747.454-2.873.395.348-.501.908-.83 1.797-1.215"/><path fill="#c473f1" d="M173.43 134.804c1.177 3.119-.672 6.368 1.803 9.111 5.88-2.95 7.42-2.297 10.69 4.689-3.115 4.65-7.202 7.934-11.588 11.316-3.457-2.402-5.902-5.686-9.75-7.835-.524-1.03-.567-1.776-.252-2.897 3.218-3.263 5.421-6.64 6.113-10.913.26-1.6.435-3.414 2.983-3.471"/><path fill="#bc6ef1" d="M164.683 152.239c5.361-.324 7.294 3.385 9.308 7.374-3.869 3.636-3.572 8.437-4.721 13.112-2.906-1.491-2.906-1.491-2.423-7.207-.937 1.91-.982 3.739-1.746 5.315-.865 1.785-2.124 2.867-4.505 1.982-.208-7.238 1.648-13.816 4.087-20.576"/><path fill="#cb78f6" d="M186.256 148.883c-1.337-.931-2.65-1.79-3.3-3.005-1.619-3.023-3.87-3.127-6.962-1.98 2.564-3.233 5.478-6.442 8.702-9.804 3.532 1.801 5.885 4.477 7.19 8.41-1.727 2.32-3.516 4.304-5.63 6.379"/><path fill="#b66af7" d="M160.552 172.987c4.502-1.132 3.234-5.071 4.373-7.734.668-1.561.488-4.342 2.839-3.713 2.257.603 1.03 3.006.653 4.681-.473 2.107-.773 4.193.4 6.555.182.815.087 1.34-.146 2.106-1.485.544-1.065 1.694-1.47 2.84-2.772.058-3.603-3.59-6.877-2.813-.834-.599-.79-1.271.228-1.922"/><path fill="#b46eed" d="M212.36 173.57c1.147 2.277.616 5.04.347 8.2-.257-2.319-.354-5.055-.347-8.2"/><path fill="#bc6ef1" d="M167.08 178.2c-.033-1.144-.104-2.141 1.123-2.943.178.897.025 1.93-.248 3.334-.389.24-.606.05-.875-.391"/><path fill="#e18af8" d="M120.493 85.74c.592-.267.78-.412 1.318-.623 9.342-2.572 18.413-3.586 27.918-1.187-.03 2.23 3.782 1.738 2.538 4.008-1.012 1.845-2.935 2.81-4.97 2.93-3.13.183-6.298.522-9.404-.402-1.957-.583-3.924-.957-5.702 1.218-1.617 2.156-4.028.629-5.828 2.21-.219.293-.356.132-.279.204-.537.295-1.13.614-1.774.72-2.265.372-4.798 2.396-6.632-.575-1.551-2.514-.148-4.688 1.35-6.738.383-.524.614-1.155 1.465-1.765"/><path fill="#d387f1" d="M150.285 84.178c-9.358-2.193-18.3-.035-27.7.874 8.829-4.267 18.283-4.637 28.24-1.286.128.23-.063.283-.54.412m-23.739 10.065c.123-3.439 2.82-1.808 5.037-2.236.709.129.962.318 1.304.764-1.738 1.35-3.9 1.16-6.34 1.472"/><path fill="#c48bec" d="M138.904 92.62c-.065.179-.233.23-.655.212-.056-.404.213-.493.655-.211"/><path fill="#ecc1fa" d="M157.243 60.23c.866-3.266 4.188-3.054 6.461-4.925.386-.266.567-.276 1.018-.293 1.148 1.398 2.024 2.805 3.072 4.47-3.753.698-3.923 3.344-3.121 6.626 1.145 1.297.629 1.94-.718 2.469-.588-.033-.819-.096-1.341-.364-1.124-1.074-1.54-2.159-1.979-3.593-.513-2.081-2.008-2.992-3.392-4.39"/><path fill="#e58cf2" d="M208.623 98.794c-.277-.148-.239-.432.142-.84.209.149.152.425-.142.84"/><path fill="#e7bded" d="M159.884 53.778c-.193.101-.455-.083-.777-.558q.288-.141.777.558m-.887-1.014c-.01.25-.501.24-.746.217-.111-.319.087-.56.56-.857.212-.108.196.39.186.64"/><path fill="#cd99f9" d="M70.259 109.582c-.48 7.346-.779 14.336-1.135 21.775.632 1.54.265 2.768.457 4.284.163 1.757.267 3.162.387 4.99.455.966.705 1.593.11 2.115-1.03.904-1.74-.052-2.792-.857-1.556-1.84-1.638-3.863-2.541-6.004-.512-2.352-.575-4.324-.505-6.733.504-3.585.197-6.76.244-10.36-.196-1.301-.146-2.163.114-3.444.946-7.675 1.534-14.964 2.939-22.57 1.316-3.464.328-7.231 3.483-9.985 1.267-.424 2.015-.158 2.848.869-.196 2.399-.602 4.436-1.15 6.863-.29 1.807-.152 3.233-.49 4.942-2.29 1.787-.18 4.076-1.356 6.176-.683 2.781-.19 5.198-.613 7.939"/><path fill="#b165f2" d="M102.644 57.087c.514.068.7.1 1.13.272.435.167.624.191.985.446.171.231.215.188.214.219 1.232 1.087 2.324 2.197 1.216 4.317-.411.377-.566.462-.982.594-1.62 1.131-3.483 1.355-4.898 2.927-.185.267-.308.138-.248.203-4.799 1.71-8.468-1.358-12.718-3.454-1.247-3.418-.533-6.093 1.97-8.669 1.212-.474 2.072-.442 3.306-.171.372.21.392.212.402.214 2.985 1.385 6.1 2.348 9.623 3.102"/><path fill="#ab69ef" d="M124.28 148.391c-.482-4.284-2.495-1.475-3.273-.93-4.708 3.297-9.76 5.156-15.562 5.77-9.504 1.006-20.152-3.93-25.128-12.595-.028-.53.126-.742.653-1.074 2.015-.149 3.18.832 4.255 1.853 8.089 7.683 17.556 9.423 28.454 6.507 4.412-1.602 7.284-4.835 11.055-7.423.562-.284.802-.374 1.427-.527 1.506-.077 2.484.256 3.464 1.458.954 3.689-.08 6.28-3.444 8.103-.97-.038-1.42-.306-1.901-1.142"/><path fill="#c48bec" d="M74.348 122.294a133 133 0 0 1-.093-8.828c.213-.975.24-1.53.554-2.28 1.76-12.85 8.484-22.723 17.064-31.586.785-.81 1.723-1.474 2.865-2.4.446-.026.617.144.925.649.044 4.957-4.121 6.948-6.477 10.527-3.093 4.183-5.52 8.351-7.582 13.127-.597 2.228-1.331 4.031-2.118 6.21-1.426 4.021-1.703 7.852-1.949 12.09.167 2.078.216 3.74-.795 5.665-.477.512-.714.67-1.363.713-.412-.115-.463-.107-.477-.129-.665-1.094-.273-2.296-.554-3.758"/><path fill="#9f5df4" d="M50.137 118.874c-3.165.6-5.146-1.155-6.48-3.155-1.64-2.46 1.362-3.76 2.381-5.36 1.634-2.567 4.6-4.27 4.932-8.076.047-.732.251-.96.839-1.102 5.369 2.882 7.877 6.55 6.81 10.212-3.842.614-6.556 2.022-7.448 6.158-.413.581-.588.907-1.034 1.323"/><path fill="#e58ef9" d="M136.912 54.794c.612-.298.952-.474 1.584-.612.753.294 1.215.55 1.965 1.078 1.516 2.31 2.587 4.403 2.474 7.254-3.501 3.406-7.95 3.91-12.456 5.192-3.086-.763-3.71-2.718-3.307-5.576.12-.821.144-1.292.201-2.109.551-1.822 2.409-1.657 3.363-3.106.406-.355.563-.485 1.023-.652.473.013.642.063.99-.084.178-.195.261-.335.619-.353.532-.188.706-.358 1.245-.555.993.24 1.507-.074 2.299-.477"/><path fill="#dea2f1" d="M127.891 59.777c.452.353.693.55.994 1.018-4.754 3.453-10.544 4.741-15.884 7.813-4.497 2.348-8.079 5.435-12.318 8.177-1.767 1.055-3.166 2.163-5.313 1.374-.263-.257-.267-.71-.312-.933 9.018-8.772 19.667-14.684 31.627-19.05.903.303.987.836 1.206 1.6"/><path fill="#9258e7" d="M65.722 135.864c1.806 1.158 1.097 3.13 2.124 4.838.728.862.63 1.636.863 2.672-.027.844-.22 1.279-.835 1.853-.552.191-.794.193-1.337-.008-5.792-3.762-9.65-7.987-8.6-15.373.646-4.544.15-9.252.252-14.345 1.684-.522 2.214.696 2.943 2.166.834 4.431.286 8.562.561 12.66.17 2.521.464 5.03 4.029 5.537"/><path fill="#8446cb" d="M90.295 53.766c-1.315 2.591-2.323 4.933-2.545 7.92-.085.85-.163 1.302-.51 1.998-2.308-.122-4.38-.494-6.847-.787-.554-.043-.713-.165-.754-.564 1.595-4.148 3.072-8.018 4.796-12.133.673 1.222 2.066 1.464 3.528 2.225.755.097 1.153.113 1.77.399.221.204.25.168.247.19.203.182.41.342.315.752"/><path fill="#bf87ec" d="M79.505 62.228c.252-.172.348.295.42.522-1.815 7.008-3.702 13.789-5.719 20.921-.64.091-1.153-.17-1.926-.554-.824-.563-1.087-1.156-1.132-2.184.234-1.376.802-2.336.773-3.776.236-2.173.29-4.064 1.808-5.85.994-2 2.233-3.552 2.278-5.929 1.775-.388 2.13-2.152 3.498-3.15"/><path fill="#b46eed" d="M123.992 148.323c.433-.167.672.033.985.49 1.624 3.49-1.41 4.706-3.093 6.943-5.397 4.816-11.223 7.663-18.531 7.476-.33-.614-.341-1.013-.354-1.711 8.066-2.642 15.44-6.133 20.993-13.198"/><path fill="#e4b7f3" d="M140.277 56.287c-.605-.59-.925-.972-1.367-1.71 2.407-2.359 6.081-1.473 8.49-4.175 1.957.63 3.917-.022 6.225-.399.911 4.317-3.31 3.745-5.513 5.749-1.784 1.9-3.838.23-5.857 1.107-.826-.008-1.274-.139-1.978-.572"/><path fill="#9f5df4" d="M60.266 118.253c-.709-1.102-1.148-1.953-1.789-3.007-.272-.964-.342-1.725-.108-2.999 3.134-.91 5.392.234 7.528 2.437.155 1.07.16 1.817.149 2.936-.326.751-.594 1.158-1.134 1.79-1.895.676-3.22.194-4.646-1.157"/><path fill="#9258e7" d="M51.217 117.647c-.839-4.584.926-7.18 6.46-6.676.55.15.68.301.684.723-.128.27-.23.328-.288.315-2.894 1.028-4.373 3.68-6.856 5.638"/><path fill="#955ec8" d="M87.3 64.16c-.176-.721-.056-1.217.234-1.898 3.765 1.929 7.458 3.76 12.17 3.866-1.365 2.983-3.702.822-5.677.473-2.206-.39-4.293-1.449-6.727-2.441m15.401-7.273c-3.44 1.34-6.347-.621-9.5-2.592 3.186-.208 6.098 1.458 9.5 2.592"/><path fill="#a674e7" d="M82.238 139.656c-.55.39-.862.44-1.638.576-1.966-1.523-3.038-3.367-3.633-5.85.287-.761.754-1.025 1.728-1.109 3.024 1.194 4.05 3.258 3.543 6.383"/><path fill="#be7ff3" d="M79.235 133.661c-.658.368-1.142.372-1.99.384-2.84-1.886-2.022-4.677-2.297-7.572.202-.42.385-.435.842-.463 3.798 1.317 3.27 4.504 3.445 7.651"/><path fill="#b17ee9" d="M68.177 144.222c-.202-.975-.221-1.713-.224-2.82.736-.589.806 1.827 1.964-.126 1.267 5.41 1.196 5.57-2.258 4.652.377-.75.584-1.08.518-1.706"/><path fill="#955ec8" d="M106.241 62.583c-.591-1.253-.875-2.557-1.214-4.195 1.618-.387 3.625-.092 4.165 1.339.61 1.618-1.799 1.77-2.951 2.856"/><path fill="#e4b7f3" d="M128.249 59.77c-.512-.2-.825-.627-1.165-1.331.778-1.555 2.31-1.213 3.658-1.786.54 2.003-1.12 2.231-2.493 3.117"/><path fill="#955ec8" d="M100.448 66.055c-.046-2.386 1.851-2.755 4.134-3.084-.494 1.755-2.385 2.058-4.134 3.084"/><path fill="#6b49bb" d="M70.347 109.656c-.234-2.166-.197-4.614.123-7.332.238 2.17.193 4.61-.123 7.332m1.983-14.092c-.275-1.237-.247-2.67.013-4.376.252 1.212.272 2.696-.012 4.376"/><path fill="#e794f4" d="M127.931 20.366c.806-.25 1.615-.047 2.013 1.263-.82.25-1.577-.031-2.013-1.263"/><path fill="#b17ee9" d="M69.734 135.64c-.977-.67-.78-1.911-.732-3.472.94.661.881 1.89.732 3.472"/><path fill="#955ec8" d="M74.14 122.318c.95.63.815 1.842.807 3.362-1.174-.56-.836-1.835-.808-3.362"/><path fill="#e4b7f3" d="M136.958 54.603c-.148.78-.585 1.367-1.755.816.36-.412.944-.649 1.755-.816"/><path fill="#955ec8" d="M90.37 54.022c-.376-.005-.39-.495-.392-.74.831-.061 1.664.124 2.755.504-.49.21-1.238.226-2.363.236"/><path fill="#c092ee" d="M92.749 161.794c-.415.287-1.115 1.245-1.688-.23.461-.121.963-.015 1.688.23"/><path fill="#e4b7f3" d="M146.309 47.335c.241.186.466.639.694 1.353-.234-.188-.473-.637-.694-1.353"/><path fill="#955ec8" d="M89.797 52.85c-.263.092-.683.006-1.291-.175.253-.063.693-.032 1.291.176"/><path fill="#b46eed" d="M100.67 161.386c-.246.234-.774.424-1.59.579.244-.231.776-.427 1.59-.579"/><path fill="#955ec8" d="M74.753 111.158c.147.363.074.919-.209 1.67-.144-.361-.078-.92.209-1.67"/><path fill="#b17ee9" d="M66.318 145.232c.104-.117.29-.018.796.216.321.135.22.233.168.282-.387.085-.664-.025-.964-.498"/><path fill="#955ec8" d="M104.839 57.856c-.178.217-.416.147-.722-.192.19-.297.433-.24.722.192"/><path fill="#e4b7f3" d="M132.684 55.95c.167.426-.044.58-.507.386-.115-.11.264-.421.507-.387m.936-.199c.106.058-.297.086-.378.12-.081.036.272-.177.378-.12"/><path fill="#b069f3" d="M72.222 79.81c-.21.954-.215 1.697-.211 2.812-2.219 2.78-1.64 6.02-2.758 9.107-3.571.918-6.196.098-7.473-3.471.174-.748.143-1.2.24-1.971 1.57-5.035 3.227-9.702 3.726-15.035.282-1.505.382-2.663.734-4.067 3.246-.259 3.91 3.547 7.131 3.797.472 2.172.324 4.245-.578 6.603-.062.988-.226 1.537-.811 2.224M67.739 63.75c-.322-.11-.325-.37.043-.756.221.131.189.375-.043.756"/><path fill="#a170df" d="M60.267 59.626c-.984.1-1.704.048-2.792-.014-2.54-.26-4.727.02-7.198-.483 3.531-1.712 7.385-1.446 11.51-.11.26.336.075.49-.04.455-.49-.262-.856-.25-1.48.152"/><path fill="#00f" d="M49.742 58.926c2.396.023 4.556.124 7.04.45-2.187.953-4.734.601-7.51.129-.235-.336.234-.502.47-.58"/><path fill="#d293f9" d="M160.969 172.573c-.317.888-.603 1.375-.903 2.153-.533 2.451-1.05 4.61-1.808 7.04-1.493.696-1.885-.14-2.252-1.424-.04-.35-.19-.81-.114-1.038-.045-.386-.166-.542-.06-.888.264-.426.298-.664.536-1.197.205-.474.207-.651.436-.967 1.507-8.34 4.494-16.188 5.456-24.878.225-1.07.233-1.757.595-2.66.31-.482.354-.745.535-1.385.081-6.4.135-12.425.105-18.879-.094-.667-.184-.904-.354-1.726-.133-.76-.187-.934-.209-1.381-.792-1.623-.308-3.1-.238-4.942 4.645.304 4.188 4.065 4.861 7.623.692 5.267.517 10.094.193 14.909-.131 1.957-.264 4.044-2.387 5.76-.336 1.077-.343 1.823-.338 2.944-1.332 7.094-2.677 13.815-4.054 20.936"/><path fill="#c092ee" d="M155.788 180.3c.705.257 1.232.823 1.995 1.563-.582 3.312-1.4 6.45-2.468 9.857-1.099.57-1.948.872-3.134 1.188.577-4.195 1.661-8.351 3.607-12.607"/><path fill="#b66af7" d="M166.922 181.94c-.04.004-.385-.242-.385-.242s.268-.019.327.074c.06.092.1.164.058.168"/><path fill="#723dcc" d="M147.081 204.826c-6.59-2.93-13.79-3.8-20.243-6.776-1.285-.592-3.346-.62-3.419-2.335-.053-1.26 1.855-1.703 2.73-2.61 6.144-6.37 12.833-3.868 19.535-1.378 1.544.574 2.97 1.502 5.12 1.432-.302 4.05-1.567 7.827-3.723 11.667"/><path fill="#d785f3" d="M109.4 111.252c10.373-14.6 38.334-14.852 47.438 7.627.212.823.108 1.25-.492 1.825-2.51.751-4.023 2.418-6.097 3.814-4.206-.717-2.806-5.541-6.046-7.253-5.501-4.764-11.013-8.335-18.792-5.56-.109-2.387-.109-2.387 1.374-4.33-4.437-.152-8.466.36-12.07 3.022-1.437 1.06-3.116 1.962-5.315.855"/><path fill="#d07df5" d="M108.943 111.137c1.387-.133 2.6-.194 3.456-1.088 4.02-4.2 9.522-3.852 14.592-4.832 1.373-.266 2.917-.264 3.377 1.24.498 1.627-1.421 1.417-2.213 2.089-.995.843-1.98 1.698-3.059 2.86-.09.313-.143.62-.298.636-.157.19-.159.364.006.74 6.007 1.483 9.914 5.007 12.14 10.86-4.043 4.076-8.855 3.518-13.947 2.506.337-6.787.337-6.787-5.157-7.98.496 2.725 4.981 3.465 3.161 7.26-1.391.966-2.631 1.075-4.295.906-5.039-1.378-6.727-5.563-9.29-9.427-.842-1.55-1.058-2.73.327-4.093.425-.749.708-1.147 1.2-1.677"/><path fill="#7c4fe5" d="M67.962 191.144c-2.963-6.374-3.954-12.927-5.478-19.335-.719-3.02.689-2.802 2.944-2.127 7.362 2.206 11.646 6.88 12.39 15.017-.494 5.57-3.618 7.641-9.856 6.445"/><path fill="#ca87ef" d="M143.995 117.389c4.099-.077 3.055 4.479 5.677 6.451 3.564 4.192 3.009 8.994 3.004 14.082-.42 6.134-.539 11.916-4.814 16.92-3.044 5.327-5.603 10.52-10.348 14.62-.824.399-1.334.51-2.26.5-1.203-.249-1.842-.7-2.47-1.75 6.023-6.91 11.263-14.047 13.822-22.814 2.781-9.528 3.007-18.863-2.61-28.01"/><path fill="#a863f2" d="M121.186 155.285c.735-2.355 3.167-3.3 3.841-5.938 2.995-1.408 3.38-4.06 3.968-6.965 4.813-2.443 6.422-1.273 6.961 5.14-3.868 8.921-10.2 14.987-18.694 19.37-.474.254-.608.42-1.028.721-.288.137-.318.36-.43.348-.112-.01-.436-.145-.603-.198-1.548-2.226.442-3 1.582-3.993 1.502-1.31 3.246-2.32 4.881-3.463 2.554-1.785 2.363-3.31-.478-5.022"/><path fill="#c975f9" d="M115.766 125.312c1.623-.31 3.014-.312 4.821-.318.805-.376 1.266-.526 2.107-.23 1.547 1.606 3.043 1.335 4.431.667 2.957-1.422 6.2-.204 9.512-1.28 3.149 2.04 2.1 5.19 2.327 8.439-.205.601-.395.782-.95 1.106-4.569-.627-8.442-2.543-13.146-.923-3.21 1.106-8.077-3.363-9.102-7.461"/><path fill="#b17ee9" d="M86.34 195.243c-2.457.45-4.593 1.132-7.114 1.876-.386.063-.358.018-.336.003-1.055-1.81-.204-2.96 1.706-3.96 9.556-1.874 18.105-5.492 27.047-9.092 1.123.353 1.568.992 1.802 2.198-.475 2.176-1.815 3.167-3.37 3.809-6.25 2.58-12.439 5.416-19.735 5.166"/><path fill="#c58bf5" d="M109.38 186.39c-.621-.755-.96-1.252-1.334-2.058-.034-.31-.038-.336-.027-.327.131-.13.252-.27.649-.433.477-.128.679-.233 1.211-.419.598-.67 1.208-.624 1.907-.982 7.405-4.058 14.372-8.273 20.562-14.18.909.16 1.528.469 2.462.927-.073 5.303-4.92 6.632-8.12 9.838-4.817 2.93-9.176 5.935-14.445 8.07-1.129.225-1.871.14-2.866-.435"/><path fill="#bc6ef1" d="M137.738 133.213c.264-.201.737-.202.974-.202 1.624 5.211-.775 9.803-2.458 14.759-2.254-1.899-1.485-6.783-6.849-5.76-.963-.816-1.798-1.015-3.052-1.023-.753-.362-1.087-.79-1.451-1.68-.21-1.217-.09-2.01.444-3.101.8-.86 1.502-1.084 2.625-1.066 1.218.27 1.831.918 2.84 1.45 2.6-.667 4.285-2.606 6.927-3.377"/><path fill="#a07aee" d="M80.848 192.76c-.518 1.448-1.17 2.57-1.879 4.02-2.594.107-2.123-2.51-3.345-3.777-.054-.056-.31.025-.43.105-.124.084-.196.244-.425.608-2.227.837-3.875 2.829-6.75 2.184-.233-.783-.068-1.523.066-2.65-.182-.557-.333-.727-.36-1.215.126-.317-.11-.703-.104-.929 3.856-.883 8.005-.982 9.985-5.754.212-.259.313-.218.29-.169.907.551.474 1.471.686 2.51.744 1.78 1.439 3.26 2.266 5.066"/><path fill="#7c4fe5" d="M78.685 187.695c-.327-.423-.602-1.143-.845-2.163.32.422.609 1.143.845 2.163"/><path fill="#7e53d5" d="M99.363 172.615q.69-.383 2.312-.651-.69.381-2.312.65"/><path fill="#b17ee9" d="M111.722 182.02c-.136.321-.551.656-1.24 1.021.139-.315.55-.66 1.24-1.02"/><path fill="#9556ef" d="M116.178 167.735c-.105-.252.087-.457.543-.678.155.257-.015.504-.543.678"/><path fill="#d785f3" d="M124.869 112.76c-.211.095-.36-.127-.286-.573.06-.13.182.348.286.572"/><path fill="#b17ee9" d="M108.75 183.475c.07.297-.115.442-.54.524-.1-.27.076-.475.54-.524"/><path fill="#7c4fe5" d="M67.716 191.85c.197.053.26.24.33.72-.149 0-.306-.294-.33-.72"/><path fill="#a35ff4" d="M61.754 88.245c2.349 1.022 4.466 2.325 6.909 3.69-.495 7.52-1.315 14.977-2.376 22.753-2.653-.578-5.065-1.476-7.766-2.548-.32-.34-.352-.504-.405-.918.727-1.053 1.192-2.394.109-2.69-3.607-.985-3.996-4.473-6.008-7.103.974-2.418 2.964-3.75 4.819-5.057 2.806-1.978 4.326-4.465 4.718-8.127"/><path fill="#a170df" d="M65.693 71.185c1.035 5.008-.672 9.733-3.295 14.546.17-4.752 1.203-9.603 3.295-14.546"/><path fill="#8446cb" d="M60.288 59.79c.063-.183.411-.354 1.051-.438-.06.208-.413.328-1.05.438"/><path fill="#9f5df4" d="M79.298 134.254c-1.787-2.489-2.218-5.124-2.996-7.99-.224-1.974-.211-3.68-.168-5.81 1.404-1.745 2.924-1.492 4.841-.679.802.434 1.188.77 1.716 1.486 1.181 2.236.265 4.527 1.56 6.701.353.659.499 1.05.658 1.74.11.639.162.994.29 1.589.17.39.264.539.552.875.344.29.492.392.862.646.496.369.755.601 1.14 1.063 1.109 1.265 2.075 2.318 3.16 3.657.978 2.232 2.58 3.327 4.809 4.021.78.132 1.234.32 2.03.643 2.894 1.991 5.847 1.08 9.034 1.386 1.639.388 2.584-.54 3.694-.71 3.72-.567 5.308 1.174 4.774 5.784-12.394 4.927-23.845 1.979-33.096-8.366-.98-2.132-1.802-3.97-2.86-6.036"/><path fill="#a863f2" d="M115.344 148.952c.277-6.718-4.658-4.383-8.239-5.1 2.943-1.404 1.157-2.347-.27-3.132-3.994-2.197-7.578-4.806-9.645-9.385.018-.352.256-.77.488-.69.019-.22-.173-.534-.464-1.155-.68-2.227-1.844-4.087-.522-6.455 2.29-.626 3.224.888 4.246 2.155 1.252 1.553 2.674 2.95 3.964 4.46 5.03 5.885 10.31 11.231 19.553 10.854-1.538 4.334-5.44 6.027-9.11 8.448"/><path fill="#d08ef6" d="M84.378 131.175c-.375-.639-.417-1.075-.493-1.84-1.157-2.192-1.14-4.311-1.386-6.768-.03-1.21-.365-1.934-.77-3.056a16 16 0 0 1-.321-2.38c-.065-4.43.597-8.345 1.983-12.524 2.293-4.495 4.544-8.571 7.419-12.702 3.435-5.482 8.374-9.076 12.752-13.728 1.437-1.101 2.715-1.504 4.56-1.359 1.28.356 1.948.85 2.147 2.156-12.72 9.28-22.014 20.393-24.488 36.609-.358 1.226-.233 2.084-.545 3.176-.117 3.005-.853 5.846.808 8.806.663 1.369.557 2.35-.235 3.56-.58.229-.84.24-1.431.05"/><path fill="#cb7df4" d="M115.314 99.727c-2.14 2.515-3.988 4.697-6.12 7.057-2.852 1.823-5.476.988-8.448.171-.544-.36-.735-.537-1.05-1.08 1.376-4.35 4.824-6.98 7.045-10.887.537-.918.978-1.481 1.68-2.125.543-.152.825-.224 1.522-.431 2.76-1.055 4.682-.39 6.124 1.562 1.389 1.88 1.13 3.723-.753 5.733"/><path fill="#df88f1" d="M156.188 75.232c-.211-.212-.428-.542-.37-.732-.519-5.436.939-6.998 6.77-6.734.362.262.385.25.398.247 3.526 4.762 5.47 9.92 3.575 15.954-4.154-1.871-9.488-1.558-10.452-7.626.105-.545.198-.721.079-1.11"/><path fill="#dd88f4" d="M112.138 68.28c4.792-3.68 10.002-6.466 16.462-7.277.28 1.856-1.597 3.905 1.196 5.734-.976 3.945-4.9 3.177-7.519 5.148-.416.533-.611.805-1.068 1.085-1.442.338-2.611.247-4.085-.247-1.7-1.622-3.25-2.899-4.986-4.442"/><path fill="#d387f1" d="M115.37 99.989c.948-3.894.698-6.934-4.947-6.985-.536-.17-.688-.334-.637-.768 3.1-3.233 6.506-5.388 10.78-6.65.03.775-.337 1.498-.564 2.263-2.088 7.022-2.08 7.024 5.756 6.27-3.077 1.967-6.558 3.883-10.387 5.87"/><path fill="#be7ff3" d="M99.827 104.813c.2.135.257.609.283.846 1.893 2.497 1.026 4.837.307 7.225-.801 2.662-1.572 5.34-2.204 8.48-.263.64-.406.88-.853 1.405.012 2.665.329 5.042.642 7.827-.004.406-.399.39-.596.389-4.919-8.813-3.385-17.265 1.565-25.762.295-.224.656-.546.856-.41"/><path fill="#e3a8f3" d="M141.89 56.312c1.806-2.132 3.557-.856 5.64-.35 2.478 1.694 7.07.38 6.563 5.608.113 1.08.129 1.764-.604 2.916-2.079-2.92-4.581-1.17-7.262-.577-.98.725-1.633.547-2.482-.138.47-2.904.234-5.28-1.854-7.46m24.484 27.917c1.56-3.755-.887-6.74-1.492-9.943-.357-1.895-1.048-3.726-1.737-5.93.64-.417 1.353-.606 1.746-1.731 2.5 5.279 3.14 11.303 4.699 17.082.191.71.76 1.829-.428 1.925-.815.065-1.701-.744-2.788-1.403"/><path fill="#d289ed" d="M143.66 62.792c.745.508 1.194.781 1.913 1.104-7.406 2.749-15.082 5.448-23.137 8.198.68-3.849 5.278-1.999 7.357-4.837 4.07-1.44 7.93-2.621 12.001-4.02.585-.604 1.038-.759 1.866-.445"/><path fill="#e794f4" d="M162.927 67.688c-3.357.846-6.295 1.917-7.018 6.236-.61-.825-1.186-2.037-1.765-3.597.081-.531.165-.715.028-1.106-.322-.626-.422-1.044-.502-1.788.665-1.837 2.466-1.907 3.73-3.246 1.494-.731 2.682-1.153 4.25-.343.6 1.344.927 2.424 1.277 3.844"/><path fill="#cb7def" d="M116.618 71.88c1.478.367 2.59.589 4.017.954-3.062 2.194-6.437 4.245-10.145 6.427-.816-.307-1.298-.745-2.111-1.25-1.506-1.633-.409-2.59.76-3.145 2.338-1.109 4.448-2.768 7.48-2.986"/><path fill="#d293f9" d="M100.328 104.801c-.3.147-.683.15-.872.174.427-4.506 4.198-6.85 7.075-10.184.181 4.387-3.662 6.628-6.203 10.01"/><path fill="#e3a8f3" d="M158.217 64.723c-.94 1.79-2.224 2.308-4.157 2.361-.589-.49-.81-1.004-1.034-1.812-.005-.294.135-.435.205-.506.96-1.286 2.164-1.98 3.998-2.198 1.035.46 1.316 1.073.988 2.155"/><path fill="#b17ee9" d="M95.834 141.29c-3.105 2.041-4.058-.176-4.807-3.103 1.533.718 3.062 1.807 4.807 3.103m10.632 2.066c.414.03.423.246.398.348-2.85-.268-5.849 1.256-8.65-1.027 2.478.424 5.1.996 8.252.679m-21.68-12.012c1.034-.91 1.094-1.802 1.192-3.036.72 1.458 1.378 3.246 1.977 5.406-.48.352-.901.333-1.637.298-.521-.253-.743-.474-1.147-.846-.166-.167-.17-.167-.17-.17-.347-.387-.493-.836-.215-1.652"/><path fill="#8446cb" d="M85.315 118.812c-.209-.651-.161-1.512.125-2.597.204.647.168 1.517-.125 2.597"/><path fill="#d293f9" d="M109.713 92.002c.283.138.29.31.312.74-.214.23-.442.204-1.006.109-.084-.317.167-.566.694-.849"/><path fill="#e794f4" d="M155.903 75.275c.455-.113.584.13.338.587-.217-.037-.314-.185-.338-.587"/><path fill="#e3a8f3" d="M153.871 69.28c.224-.022.368.222.391.582-.237-.027-.354-.17-.39-.581"/><path fill="#a990eb" d="M82.616 201.079c-1.355 2.299-3.155 4.496-6.085 5.902-.059-3.697 2.11-5.535 6.085-5.902"/><path fill="#8c56f6" d="M108.899 186.413c.92-.33 1.64-.38 2.72-.443 2.926.227 3.625 1.86 3.361 4.54-1.534 3.179-4.23 4.221-6.922 5.024-4.874 1.454-9.108 4.73-14.72 4.794-4.321 1.01-7.344.682-7.327-4.93 7.598-3.076 15.814-4.06 22.888-8.985"/><path fill="#a674e7" d="M93 200.434c7.049-2.657 13.827-5.623 20.69-9.267 2.2-2.648 4.862-3.977 7.994-5.218a8 8 0 0 1 2.036-.497c.581.033.81.087 1.311.363.458.66.511 1.112.184 1.844-7.822 5.596-16.285 9.146-24.95 12.273-2.135.771-4.317 1.414-6.868 2.104-.393-.436-.395-.86-.396-1.602"/><path fill="#a170df" d="M85.903 206.664c-.018.34-.457.334-.676.331-.131-.524-.043-1.045.204-1.78.27.229.38.669.472 1.45"/><path fill="#955ec8" d="M90.872 202.696c-.039.177-.194.243-.6.303-.125-.363.12-.499.6-.303m-1.059.298c.069.28-.12.452-.566.43-.033-.295.156-.41.566-.43"/><path fill="#a170df" d="M86.562 204.02c.113.19-.002.343-.372.386-.032-.159.101-.261.372-.385"/><path fill="#eeb6f9" d="M158.335 64.97c-.518-.502-.698-1.048-1.107-1.777-.408-.355-.588-.527-.52-.978.258-.708.268-1.137.295-1.887 2.605-.61 4.417.227 4.899 3.403-1.062.65-2.146.923-3.567 1.239"/><path fill="#ecc1fa" d="M156.601 61.955c.365.16.376.339.393.786-1.034.862-2.074 1.455-3.404 2.001-.491-.871-.56-1.678.277-2.589.96-.188 1.67-.183 2.734-.198"/><path fill="#cb7def" d="M166.32 128.229c-.47-2.951-1.302-5.452-3.002-7.98-.472-.339-.677-.456-.971-.914-.138-.786-.186-1.23-.193-2.008.469-1.133.356-1.977.037-3.054-.402-.685-.75-1.137-.747-1.586.01-1.618-.87-3.906.462-4.693 1.962-1.158 3.003 1.321 4.279 2.42 2.229 1.921 4.32 4.003 6.702 6.26.35.424.468.606.76 1.063.213 3.309.25 6.343.21 9.826-2.37 2.155-4.805 1.584-7.537.666"/><path fill="#cf77f7" d="M166.02 128.46c2.348-1.426 4.688-1.31 7.393-.464.413 2.056.46 4.096.427 6.567-2.34 1.072-1.842 2.96-1.812 4.513.091 4.71-2.883 7.416-6.625 9.924 1.483-6.601.237-13.375.617-20.54"/><path fill="#ca87ef" d="M155.766 120.384c.534-.43.76-.598 1.07-.99 3.399 6.856 4.403 14.208 2.986 21.813-1.419 7.614-3.849 14.886-8.34 21.67-.52.318-.776.428-1.411.357-1.558-1.703-1.28-3.321-.525-5.329 3.17-6.11 6.264-11.822 5.892-19.015.643-4.791.908-9.147-.5-13.488-.507-1.564-.496-3.24.828-5.018"/><path fill="#bd72f5" d="M97.263 122.225c-.876-5.633 2.483-10.255 2.83-15.907 2.718-.203 5.47-.615 8.425.59-.046 1.908-2.89 3.074-.905 5.55.239.996.204 1.987.277 3.26-.145.816-.599 1.145-1.299 1.613-.673.476-1.15.762-1.588 1.507-.278.409-.397.57-.723.96-.517.514-.853.766-1.491 1.153-1.916.724-3.384 1.908-5.526 1.274"/><path fill="#bf87ec" d="M149.56 162.86c.555.126.776.144 1.327.193-5.626 10.924-15.175 18.113-25.553 24.837-.355-.396-.366-.827-.388-1.581-.229-1.622.377-2.617 1.42-3.789 4.614-3.06 8.739-6.173 12.591-10.172 4.054-2.858 5.569-7.938 10.603-9.489"/><path fill="#b272d3" d="M163.397 128.478c1.458 5.588.554 11.688.333 18.12-.278-5.652-.352-11.657-.333-18.12m-1.229-9.101c.36-.24.563-.03.79.447.125 1.608.158 3.014.098 4.833-.387-1.357-.682-3.127-.888-5.28m-.21-4.967c.847.317 1.113 1.136.419 2.36-.267-.514-.352-1.25-.42-2.36m1.002 34.29c.1.523.038 1.25-.26 2.134-.124-.538-.013-1.233.26-2.133"/><path fill="#c092ee" d="M155.923 178.28c.139-.053.134.375.09.585-.343.032-.404-.215-.09-.585m.95-2.084c.157.142.086.344-.177.625-.252-.152-.204-.367.177-.625"/><path fill="#b17ddd" d="M173.874 117.747c-.311.097-.512-.122-.704-.613.219-.03.488.16.704.613"/><path fill="#b272d3" d="M162.952 126.166c.109-.027.267.162.22.275-.046.114-.313.073-.313.073s-.017-.32.093-.348"/><path fill="#a35ff4" d="M120.684 155.142c2.294-.134 4.87-.447 5.597 1.597.768 2.163-1.8 3.274-3.211 4.49-2.479 2.135-5.718 3.284-7.96 6.177-3.712-1.331-6.625-5.164-11.763-3.422-.388-.008-.352-.488-.332-.727 6.726-.739 12.006-4.434 17.669-8.115"/><path fill="#9959fb" d="M59.995 118.47c1.426-.167 2.851.133 4.64.484 1.43 3.098.552 6.262 1.155 9.706.247 2.353.255 4.35.266 6.77-.141 2.546-.43 4.37-3.029 2.095-1.92-1.68-3.22-3.518-3.084-6.315.199-4.082.051-8.181.052-12.74"/><path fill="#a35ff4" d="M66.045 128.555c-2.055-2.388-.606-5.63-1.048-9.105.135-.754.337-1.01.819-1.335.224 3.246.235 6.613.23 10.44"/><path fill="#a863f2" d="M125.603 138.989c.395.46.398.9.409 1.67-.162.332-.332.335-.755.341-.254.003-.257 0-.256 0-.608-.746-.447-1.414.602-2.011"/><path fill="#030105" d="M124.59 145.26c.443-.601.512-1.495 1.082-.87.233.257.38.84.249 1.131-.312.695-.887.68-1.331-.26"/><path fill="#cb78f6" d="M103.954 78.653c-.453 3.748-3.88 4.628-5.761 6.82-1.788 2.083-3.722 4.157-5.922 6.367-3.384 1.312-4.191-.534-4.388-3.438 1.605-4.142 5.665-5.981 7.15-10.143 1.846-.115 2.717-1.96 4.627-2.222 2.45-.652 3.448.642 4.294 2.616"/><path fill="#bd72f5" d="M87.698 88.174c1.177 1.323 1.534 3.266 3.95 3.783-1.809 3.906-3.946 7.763-6.337 11.845-2.551.825-3.425-1.123-4.986-2.522 1.663-4.779 4.115-9.004 7.373-13.106"/><path fill="#a563fa" d="M82.75 116.564c.188.864.182 1.307.164 2.084-.475.852-.913 1.393-1.654 2.127-1.64-.095-3.018-.419-4.746-.745-.831-4.23-.3-8.331 1.34-12.667 3.626-2.081 5.229-1.097 4.776 2.833-.228 1.982-.13 3.965.12 6.368"/><path fill="#b069f3" d="M82.97 116.55c-1.697-1.6-.857-4.01-.929-6.246-.072-2.248-.849-3.443-3.615-3.291.232-1.762.874-3.523 1.584-5.629 2.234-.679 3.493.556 4.776 2.43-.73 4.189-2.182 8.09-1.816 12.736"/><path fill="#e794f4" d="M144.172 62.77c-.65.254-1.083.25-1.84.25-.96-2.079-1.596-4.157-2.285-6.59.392-.377.838-.401 1.618-.429 5.898 2.593 6.13 3.228 2.507 6.768"/><path fill="#dea2f1" d="M135.528 57.478c.02.037-.018-.037 0 0"/><path fill="#d67ffa" d="M104.31 78.868c-1.466-.763-2.61-1.673-4.034-2.73 3.16-3.24 6.706-6.184 11.353-8.103 2.608.147 4.967.193 5.347 3.619-2.37 3.043-5.97 3.668-8.853 5.954-1.214.595-2.352.855-3.813 1.26"/><path fill="#cd99f9" d="M67.668 145.595c-.233-.012-.285-.025-.283-.048.143-.363.284-.702.517-1.302.765.32 1.419.9-.234 1.35"/><path fill="#c67bf5" d="M72.296 79.973c-.11-.508.058-1.063.45-1.811 1.175.678 1.027 1.327-.45 1.811"/><path fill="#d67ffa" d="M155.631 120.046c.058 2.868 1.034 5.46 1.9 8.086 1.122 3.402.275 6.736-.517 10.476-1.584 2.92-3.442 2.489-5.709.688.287-5.047-1.304-9.67-1.328-14.842 1.204-2.48 1.761-5.383 5.654-4.408"/><path fill="#c371fc" d="M104.87 116.229c.956-.24 1.68-.234 2.766-.228 3.663 2.185 4.084 6.826 8.066 8.843 2.856 4.905 7.867 7.346 12.471 5.538 3.896-1.53 6.126 1.51 9.462 2.575-1.175 3.132-4.114 4.499-7.297 6.021-1.025-.735-.746-1.673-1.126-2.754-.98-.227-1.723-.224-2.839-.22-3.13 2.413-6.028 1.519-8.596-.072-5.614-3.477-10.724-7.593-14.613-13.52-.188-1.23.109-1.985.632-3.078.22-.34.201-.336.203-.326.74-.707.383-1.697.87-2.78"/><path fill="#e18af8" d="M123.217 124.726c-.66.262-1.103.264-1.88.265-.668-3.163-3.85-3.646-5.6-5.469-1.355-1.409-1.885-2.303.164-3.253 2.327-1.079 8.967 1.914 9.767 4.335.706 2.136-.95 2.888-2.45 4.122"/><path fill="#b66af7" d="M149.92 162.6c-3.81 2.955-5.471 7.574-9.625 10.247-1.916-.434-2.759-1.715-3.334-3.584 2.915-4.757 5.844-9.178 8.927-13.906 2.799-1.898 4.39-.94 5.177 2.218-.419 1.83-.77 3.243-1.146 5.025"/><path fill="#c975f9" d="M151.263 157.773c-1.212-1.45-2.404-2.767-4.875-2.731 3.219-4.43 4.104-9.744 4.613-15.598 1.817-.834 3.526.93 5.682-.293 1.248 6.863-2.012 12.616-5.42 18.622"/><path fill="#a35ff4" d="M136.642 168.953c1.67.786 2.896 1.72 3.315 3.72-3.216 4.655-7.437 7.8-12.527 10.363-3.504-.515-3.302-2.276-1.684-4.741 3.169-3.085 6.085-5.876 9.19-8.948.592-.31.997-.339 1.706-.394"/><path fill="#975af3" d="M125.648 178.058c.655 1.463-.851 3.268 1.253 4.786-.372 1.093-.926 1.935-1.723 2.959-.242.183-.74.223-.989.25-.404.173-.56.321-.94.702a142 142 0 0 1-8.898 4.2c-.286-1.66-.277-3.342-2.154-4.717 4.223-2.896 8.661-5.51 13.45-8.18"/><path fill="#b669fd" d="M103.83 121.823c4.163 4.15 8.125 8.061 12.58 11.456 2.643 2.014 5.443 3.085 9.174 2.725.417.752.416 1.503.413 2.63-.314.845-.625 1.315-.966 2.076-1.351.292-2.728.048-3.986.332-7.387 1.67-11.021-3.559-15.215-7.97-2.929-3.081-5.884-6.111-8.486-9.859-.3-.332-.31-.506-.324-.944 1.874-.558 3.004-2.797 5.57-2.274.973.368.872 1.04 1.24 1.828"/><path fill="#aa5bda" d="M128.991 136.326c1.827-.175.691 1.244.99 2.356-.814-.27-.954-1.122-.99-2.356"/><path fill="#a863f2" d="M82.73 121.741c.565 2.337.888 4.407 1.166 6.872-3.251-.881-1.369-3.689-1.898-6.19.163-.596.327-.773.732-.682"/><path fill="#b069f3" d="M82.986 121.63c-.013.379-.5.374-.744.374-.374-.303-.568-.555-1.036-.878-.103-.98.183-1.715 1.398-2.08.331.692.363 1.448.382 2.584"/><path fill="#a863f2" d="M84.768 131.022c.24.455.24.889.237 1.647-.89.13-1.984.105-1.17-1.514.21-.182.693-.155.933-.133m.357 2.186q.28-.13.758.58-.277.124-.758-.58"/><path fill="#be7ff3" d="m98.001 130.999.333.37a.8.8 0 0 1-.283-.246.5.5 0 0 1-.05-.124"/><path fill="#bf87ec" d="M123.214 186.875q-.094-.238.539-.686.099.243-.539.686"/><path fill="#aa5bda" d="M104.835 116.196c.07.653-.13 1.518-.581 2.602-.064-.65.125-1.52.581-2.602m-.809 5.479c-.331-.104-.658-.592-1.026-1.382.106-.605.312-.86.798-1.183.223.65.228 1.416.228 2.565m26.124 11.057c.124-.389.289-.578.454-.767l.232.83c-.215.046-.43.091-.686-.063"/></svg>